<svg width="100" height="21" viewBox="0 0 100 21" fill="none" xmlns="http://www.w3.org/2000/svg">
<path d="M35.9193 7.32705C35.9193 7.25567 35.9193 7.18875 35.9193 7.11736C35.9193 5.43094 35.9193 3.74451 35.9193 2.05808C35.9193 1.88855 35.9461 1.82608 36.1379 1.83054C36.9945 1.84393 37.8467 1.83947 38.7033 1.83054C38.8773 1.83054 38.9263 1.87069 38.9263 2.04915C38.9263 6.84967 38.9263 11.6457 38.9263 16.4463C38.9263 17.5393 38.962 18.6324 39.1182 19.7165C39.1405 19.8682 39.0959 19.8994 38.9486 19.8994C37.0748 19.8905 35.2055 19.8994 33.3317 19.8905C31.8862 19.886 30.9136 19.1276 30.231 17.9274C29.6911 16.9816 29.4369 15.9421 29.2986 14.8714C29.129 13.5329 29.129 12.1945 29.3342 10.8605C29.5216 9.63361 29.8696 8.46025 30.6147 7.44304C31.217 6.62213 31.9843 6.03323 33.0239 5.886C34.2151 5.71646 35.2903 6.15814 35.8346 7.26012C35.8479 7.28689 35.8658 7.3092 35.8836 7.33597C35.897 7.33597 35.9149 7.33151 35.9283 7.32705H35.9193ZM35.9193 14.0906C35.9193 14.0906 35.9104 14.0906 35.906 14.0906C35.906 12.9797 35.9193 11.8643 35.9015 10.7534C35.8926 10.1601 35.732 9.59793 35.3973 9.09825C34.7861 8.18811 33.7109 8.16133 33.0506 9.03131C32.7874 9.37931 32.6134 9.77192 32.5108 10.1913C32.0602 12.016 32.0602 13.8497 32.4795 15.6789C32.6045 16.2276 32.8142 16.7452 33.1934 17.1779C33.4745 17.4991 33.8269 17.6642 34.2597 17.6598C34.7371 17.6553 35.21 17.6508 35.6873 17.6598C35.8702 17.6642 35.9283 17.6241 35.9283 17.4322C35.9193 16.3213 35.9238 15.206 35.9238 14.0951L35.9193 14.0906Z" fill="white"/>
<path d="M61.3529 12.6906C61.3395 11.2808 61.3842 9.60773 61.3083 7.93469C61.2816 7.36808 61.2592 6.80148 61.2325 6.23488C61.2325 6.15011 61.2057 6.0698 61.3485 6.0698C63.3561 6.07873 65.3682 6.04749 67.3759 6.09211C68.8794 6.12334 69.9144 6.95318 70.432 8.40315C70.6996 9.16159 70.8067 9.9468 70.8067 10.7409C70.8157 13.7346 70.8067 16.7327 70.8157 19.7263C70.8157 19.8735 70.7621 19.8914 70.6372 19.8914C69.7494 19.8869 68.8615 19.8825 67.9737 19.8914C67.8176 19.8914 67.7997 19.8423 67.7997 19.704C67.7997 16.8888 67.7997 14.0781 67.7997 11.2629C67.7997 10.7097 67.773 10.1565 67.599 9.62111C67.4339 9.10359 67.1573 8.67975 66.5862 8.53252C66.4256 8.49237 66.265 8.47898 66.0999 8.47898C65.5824 8.47898 65.0693 8.48791 64.5518 8.47898C64.3822 8.47898 64.351 8.52806 64.351 8.68421C64.3555 12.3426 64.351 16.001 64.3599 19.6638C64.3599 19.8601 64.3064 19.8914 64.1235 19.8914C63.258 19.8825 62.388 19.8825 61.5225 19.8914C61.3752 19.8914 61.3395 19.8512 61.3395 19.7085C61.344 17.4554 61.3395 15.2024 61.3395 12.6861L61.3529 12.6906Z" fill="white"/>
<path d="M22.6756 14.5008C22.68 15.8437 22.6488 17.1821 22.7469 18.525C22.7782 18.9355 22.8228 19.3415 22.8674 19.7475C22.8808 19.8546 22.8674 19.8947 22.7469 19.8947C20.7705 19.8902 18.7941 19.9259 16.8177 19.8769C15.4659 19.8412 14.529 19.0916 13.9713 17.8871C13.2217 16.2809 13.3913 13.8182 14.984 12.395C15.8496 11.6187 16.8801 11.1993 18.0044 10.9807C18.4996 10.887 18.9949 10.8335 19.499 10.8246C19.5704 10.8246 19.6418 10.838 19.6418 10.722C19.6329 10.1598 19.6016 9.60214 19.3339 9.08907C19.035 8.51355 18.5398 8.21463 17.9107 8.17002C16.8534 8.08971 15.8495 8.31278 14.9126 8.808C14.7342 8.90169 14.7342 8.84815 14.7342 8.69646C14.7387 8.14324 14.7431 7.59002 14.7342 7.0368C14.7342 6.8985 14.7833 6.82712 14.8948 6.7602C16.0414 6.09098 17.2861 5.8233 18.6067 5.88576C19.3429 5.92145 20.0567 6.0553 20.7081 6.42114C21.6137 6.92528 22.1179 7.72388 22.3945 8.69201C22.6265 9.49953 22.68 10.3294 22.68 11.1636C22.68 12.279 22.68 13.3899 22.68 14.5053L22.6756 14.5008ZM19.7176 15.2414H19.7221C19.7221 14.4874 19.7221 13.7334 19.7221 12.9795C19.7221 12.8501 19.6864 12.8099 19.557 12.8233C19.1867 12.8501 18.8164 12.8858 18.455 12.9795C17.8438 13.1401 17.2772 13.3944 16.9069 13.9297C16.2868 14.831 16.2689 15.808 16.6704 16.7895C16.9114 17.3785 17.3843 17.6774 18.0401 17.664C18.5353 17.6551 19.0306 17.6551 19.5258 17.664C19.6864 17.664 19.7176 17.6149 19.7132 17.4677C19.7042 16.7271 19.7132 15.9865 19.7132 15.2414H19.7176Z" fill="white"/>
<path d="M51.5283 13.8324C50.5244 13.8324 49.5206 13.8369 48.5168 13.8279C48.3339 13.8279 48.3071 13.8859 48.316 14.0465C48.3606 14.805 48.4454 15.55 48.7889 16.2416C49.2306 17.1339 49.9623 17.6157 50.9438 17.7005C51.9521 17.7897 52.9336 17.6335 53.8839 17.3034C54.0267 17.2543 54.0579 17.2677 54.0579 17.4194C54.049 18.0306 54.0579 18.6418 54.0579 19.2531C54.0579 19.3423 54.049 19.4092 53.9464 19.4494C52.2689 20.1052 50.5601 20.297 48.8291 19.7081C47.4594 19.2441 46.5805 18.2448 46.0362 16.9376C45.4875 15.6214 45.3581 14.2339 45.3982 12.8241C45.4295 11.615 45.6169 10.4283 46.0764 9.29956C46.5582 8.11727 47.2676 7.12237 48.4008 6.47992C49.9221 5.61886 51.8807 5.79732 53.0987 6.92606C53.8304 7.6042 54.2364 8.46973 54.4907 9.4111C54.8744 10.8254 54.9011 12.262 54.7718 13.7119C54.7584 13.8681 54.6602 13.8235 54.5799 13.8235C53.5627 13.8235 52.5455 13.8235 51.5283 13.8235V13.8324ZM50.1898 11.6909C50.7564 11.6909 51.323 11.6909 51.8896 11.6909C52.0146 11.6909 52.0547 11.6641 52.0503 11.5303C52.0369 11.0484 52.0101 10.5711 51.9075 10.0982C51.7871 9.55387 51.6175 9.03187 51.2249 8.61249C50.7208 8.07266 49.9534 8.04143 49.4046 8.53219C49.2083 8.70619 49.0566 8.91588 48.9317 9.14787C48.5391 9.89293 48.3874 10.696 48.3339 11.5258C48.325 11.6552 48.3562 11.6909 48.4856 11.6864C49.0522 11.682 49.6188 11.6864 50.1854 11.6864L50.1898 11.6909Z" fill="white"/>
<path d="M96.302 13.8323C95.2848 13.8323 94.2676 13.8323 93.2504 13.8323C93.1166 13.8323 93.0764 13.8591 93.0809 14.0019C93.0987 14.5506 93.1523 15.0905 93.3084 15.6214C93.7323 17.049 94.6915 17.7584 96.1816 17.7361C97.0337 17.7227 97.868 17.5978 98.6711 17.2989C98.796 17.2542 98.8094 17.2855 98.8094 17.397C98.8094 18.0216 98.8049 18.6462 98.8094 19.2708C98.8094 19.3824 98.7737 19.427 98.6755 19.4716C98.0197 19.7571 97.3282 19.9177 96.6233 19.9936C95.7622 20.0873 94.9056 20.0873 94.0579 19.8687C92.5767 19.485 91.5506 18.5659 90.9037 17.2052C90.4709 16.2906 90.2657 15.3135 90.1899 14.3052C90.0917 13.0605 90.1452 11.8202 90.4308 10.6022C90.7386 9.28611 91.274 8.09044 92.2689 7.14015C93.5627 5.90879 95.557 5.59203 97.0694 6.37724C97.9349 6.82785 98.4971 7.5506 98.8897 8.42058C99.3492 9.43333 99.5277 10.5041 99.5812 11.6016C99.6124 12.2664 99.6035 12.9266 99.55 13.5914C99.5366 13.7654 99.5054 13.8457 99.2957 13.8412C98.2963 13.8279 97.3014 13.8368 96.302 13.8368V13.8323ZM94.9413 11.6908C95.5168 11.6908 96.0879 11.6908 96.6634 11.6908C96.7839 11.6908 96.8151 11.6596 96.8151 11.5391C96.8151 11.0082 96.766 10.4862 96.6456 9.97317C96.5207 9.45564 96.3422 8.96488 95.9541 8.57674C95.4678 8.09044 94.7762 8.05475 94.2364 8.47858C94.0089 8.6615 93.8393 8.88903 93.701 9.14333C93.2995 9.89286 93.1567 10.7093 93.0943 11.5436C93.0854 11.673 93.1255 11.6953 93.2415 11.6908C93.8081 11.6864 94.3747 11.6908 94.9413 11.6908Z" fill="white"/>
<path d="M8.09649 7.54581C8.09649 7.88934 8.09649 8.23733 8.09649 8.58087C8.09649 8.71025 8.06525 8.73256 7.94033 8.6924C7.49418 8.54071 7.03467 8.46041 6.56176 8.44256C5.69177 8.40687 5.0047 8.75932 4.48271 9.43746C3.96964 10.0978 3.71534 10.8651 3.59042 11.6771C3.39411 12.9308 3.4209 14.18 3.80012 15.4024C3.88042 15.6567 3.98304 15.9021 4.11243 16.1341C4.72811 17.2539 5.71408 17.7491 6.98113 17.5707C7.31574 17.5216 7.65035 17.4636 7.96266 17.3298C8.07419 17.2807 8.09649 17.3119 8.09649 17.419C8.09649 18.1105 8.09203 18.7976 8.09649 19.4891C8.09649 19.6096 8.03403 19.6453 7.94926 19.6854C7.52096 19.8683 7.07035 19.9754 6.61083 20.0245C5.48654 20.136 4.39796 20.0156 3.38521 19.4757C2.24308 18.8645 1.51585 17.9008 1.06078 16.7185C0.525409 15.3266 0.404946 13.8721 0.498636 12.3999C0.578942 11.1507 0.873394 9.95945 1.498 8.86639C2.37244 7.32719 3.65734 6.33675 5.433 6.04675C6.27175 5.90845 7.10606 5.91737 7.90912 6.26983C8.04296 6.32782 8.10988 6.39475 8.10096 6.55536C8.08311 6.88551 8.09649 7.22013 8.09649 7.55027V7.54581Z" fill="white"/>
<path d="M77.1996 13.2164C77.1996 11.6861 77.4673 10.2138 78.2302 8.86199C79.1002 7.32279 80.3895 6.32788 82.1607 6.04235C83.0128 5.90404 83.8605 5.90851 84.6725 6.28327C84.793 6.33681 84.8331 6.39927 84.8331 6.53311C84.8242 7.18448 84.8331 7.83584 84.8331 8.48721C84.8331 8.65972 84.7543 8.7207 84.5966 8.67014C84.1728 8.53629 83.7356 8.46045 83.2894 8.44706C82.4195 8.41583 81.7369 8.7683 81.2149 9.44644C80.7018 10.1112 80.4475 10.8875 80.3226 11.7084C80.1308 12.9531 80.1575 14.1845 80.5367 15.398C80.7197 15.9825 81.0052 16.5134 81.4558 16.9372C82.1027 17.5484 82.8835 17.6733 83.7267 17.5707C84.0658 17.5306 84.3959 17.4681 84.7082 17.3298C84.8242 17.2807 84.8376 17.3298 84.8376 17.428C84.8376 18.1195 84.8331 18.8066 84.8376 19.4981C84.8376 19.6185 84.7706 19.6542 84.6859 19.6899C84.2576 19.8728 83.807 19.9799 83.3474 20.029C82.2232 20.1405 81.1346 20.0245 80.1218 19.4802C78.9752 18.8646 78.248 17.892 77.7885 16.7052C77.3557 15.5854 77.2174 14.4165 77.204 13.2253L77.1996 13.2164Z" fill="white"/>
<path d="M18.6997 2.62032C17.4327 2.62032 16.1701 2.62032 14.903 2.62032C14.7558 2.62032 14.7157 2.58463 14.7201 2.4374C14.729 1.82618 14.729 1.21497 14.7201 0.603748C14.7201 0.474366 14.7469 0.425293 14.8897 0.425293C17.4327 0.429754 19.9757 0.425293 22.5187 0.425293C22.6481 0.425293 22.6838 0.460982 22.6838 0.590364C22.6794 1.20158 22.6749 1.81279 22.6838 2.42401C22.6838 2.5757 22.6526 2.62032 22.492 2.62032C21.2249 2.6114 19.9623 2.62032 18.6953 2.62032H18.6997Z" fill="white"/>
</svg>
