<svg width="157" height="18" viewBox="0 0 157 18" fill="none" xmlns="http://www.w3.org/2000/svg">
<path d="M80.9158 8.54766C81.1899 8.68364 81.3269 8.81962 81.601 8.9556C83.7935 10.3154 83.6565 13.307 81.3269 14.5308C80.5047 14.9388 79.6826 15.0747 78.8604 15.0747C77.9011 15.0747 77.079 15.0747 76.1197 15.0747C75.7086 15.0747 75.5716 14.9388 75.7086 14.6668C75.7086 13.443 75.5716 13.7149 76.6679 13.7149C77.4901 13.7149 78.4493 13.7149 79.2715 13.7149C80.2307 13.5789 81.0529 13.307 81.3269 12.2191C81.738 10.7233 80.7788 9.49952 78.9974 9.36354C77.7641 9.22756 76.3938 9.36354 75.1605 9.36354C74.7494 9.36354 74.7494 9.63551 74.7494 9.90747C74.7494 11.5392 74.7494 13.035 74.7494 14.6668C74.7494 15.2107 74.6124 15.3467 74.0643 15.2107C73.6532 15.2107 73.105 15.4827 73.105 14.6668C73.105 10.8593 73.105 6.91589 73.105 3.10843C73.105 2.70049 73.105 2.42853 73.6532 2.42853C75.4346 2.42853 77.216 2.29254 78.9974 2.56451C79.9566 2.70049 80.9158 2.97245 81.601 3.78834C82.9713 5.14814 82.8343 7.32384 81.1899 8.41168C81.1899 8.41168 81.0529 8.41168 80.9158 8.54766ZM77.079 7.86776C77.7641 7.86776 78.3122 7.86776 78.9974 7.86776C79.1344 7.86776 79.4085 7.86776 79.5455 7.73178C80.6418 7.45982 81.1899 6.77991 81.0529 5.69207C80.9158 4.60422 80.2307 3.78834 78.8604 3.78834C77.7641 3.65235 76.5308 3.78834 75.4346 3.65236C75.0235 3.65236 75.0235 3.78833 75.0235 4.06029C75.0235 5.14814 75.0235 6.23599 75.0235 7.32383C75.0235 7.73177 75.1605 7.73178 75.5716 7.73178C75.9827 7.86776 76.5308 7.86776 77.079 7.86776Z" fill="white"/>
<path d="M57.0757 10.0481C58.0349 11.4079 58.9941 12.7677 59.9534 14.1275C60.0904 14.3995 60.6385 14.6714 60.3645 15.0794C60.0904 15.3513 58.8571 15.0794 58.7201 14.8074C58.0349 13.9915 57.4868 13.0397 56.8016 12.2238C56.3905 11.5439 55.9794 10.728 55.2943 10.32C54.6091 10.0481 53.7869 10.32 52.9647 10.1841C52.4166 10.1841 52.2796 10.32 52.2796 10.864C52.2796 12.0878 52.2796 13.3116 52.2796 14.5354C52.2796 15.0794 52.1426 15.2154 51.5944 15.2154C50.6352 15.2154 50.6352 15.2153 50.6352 14.2635C50.6352 10.592 50.6352 6.78454 50.6352 3.11306C50.6352 2.8411 50.4982 2.56914 50.9093 2.43316C51.3204 2.43316 51.7315 2.29718 52.1426 2.43316C52.2796 2.43316 52.1426 2.70512 52.1426 2.97708C52.1426 4.74483 52.1426 6.51258 52.1426 8.28033C52.1426 8.68827 52.2796 8.82425 52.6907 8.82425C53.7869 8.82425 55.0202 8.96023 56.1165 8.68827C57.4868 8.41631 58.1719 7.46444 58.1719 6.10464C58.1719 4.74483 57.3498 3.92895 55.9794 3.79297C55.1572 3.65699 54.3351 3.65699 53.5129 3.79297C52.9647 3.79297 52.9647 3.52101 52.9647 3.11306C52.9647 2.8411 52.6907 2.29718 53.3758 2.29718C54.4721 2.29718 55.4313 2.1612 56.5276 2.43316C58.309 2.8411 59.5423 3.92894 59.6793 5.56071C59.8163 7.7364 59.1312 9.09622 57.2127 9.9121C57.2127 9.9121 57.2127 10.0481 57.0757 10.0481Z" fill="white"/>
<path d="M130.382 10.1838C131.342 11.5436 132.301 12.9034 133.26 14.2632C133.397 14.3992 133.671 14.6711 133.534 14.9431C133.397 15.215 133.123 15.0791 132.849 15.0791C132.301 15.0791 132.027 14.9431 131.616 14.5351C130.794 13.3113 129.834 12.0875 129.012 10.8637C128.738 10.4557 128.464 10.3197 128.053 10.3197C127.505 10.3197 126.957 10.3197 126.409 10.3197C125.86 10.3197 125.723 10.4557 125.723 10.9996C125.723 12.2235 125.723 13.3113 125.723 14.5351C125.723 15.2151 125.312 15.0791 124.901 15.0791C124.49 15.0791 124.079 15.0791 124.079 14.5351C124.079 10.8637 124.079 7.19218 124.079 3.5207C124.079 2.97678 124.353 2.8408 124.764 2.97678C125.723 2.97678 125.723 2.97678 125.723 3.92865C125.723 5.56042 125.723 7.0562 125.723 8.68797C125.723 9.09592 125.86 9.2319 126.272 9.2319C127.231 9.2319 128.19 9.2319 129.012 9.2319C130.794 9.09592 131.753 7.87209 131.342 6.10434C131.068 5.15247 130.382 4.60855 129.149 4.47257C128.464 4.47257 127.779 4.47257 126.957 4.47257C126.683 4.47257 126.409 4.47257 126.409 4.06463C126.409 3.11276 126.409 3.11276 127.368 3.11276C128.19 3.11276 129.012 3.11276 129.834 3.24874C131.479 3.5207 132.712 4.74453 132.849 6.24031C133.123 8.28003 132.301 9.63983 130.657 10.3197C130.657 10.0478 130.52 10.0478 130.382 10.1838Z" fill="white"/>
<path d="M41.9942 2.70312C45.42 2.70312 48.0236 5.42274 48.1606 8.82226C48.2976 11.9498 45.557 14.8054 42.4053 15.0774C38.9795 15.2133 36.2389 12.9017 35.8278 9.63814C35.6907 8.00637 36.1018 6.64657 37.061 5.28676C37.3351 4.87882 37.4721 4.87882 37.8832 5.15078C38.4314 5.55872 38.5684 5.83069 38.1573 6.37461C37.061 8.00638 37.1981 10.1821 38.4314 11.8138C39.5276 13.3096 41.035 14.1255 43.0904 13.7176C46.5162 13.0377 47.8865 8.68628 45.694 5.96666C44.3237 4.19892 42.1312 3.65499 40.0757 4.60686C39.8017 4.74284 38.8425 4.19891 38.7054 3.92695C38.7054 3.65499 38.8425 3.655 38.9795 3.655C39.8017 2.97509 40.7609 2.70312 41.9942 2.70312Z" fill="white"/>
<path d="M145.727 12.2234C146.001 13.0393 145.453 13.5833 144.631 14.1272C139.972 17.1188 134.764 14.2632 134.353 9.36785C134.216 6.9202 135.175 5.01648 137.231 3.65667C139.423 2.29686 141.616 2.29685 143.945 3.52068C144.357 3.65666 144.631 4.06461 145.042 4.33657C145.453 4.60853 145.453 4.88049 145.179 5.15245C144.905 5.42442 144.631 5.96833 144.082 5.56039C143.26 4.88049 142.438 4.47255 141.342 4.33657C139.423 4.06461 137.642 4.88049 136.683 6.64824C135.587 8.41599 135.724 10.5917 136.957 12.2234C138.601 14.3991 141.479 14.8071 143.671 13.1753C144.22 12.7674 143.945 12.3594 144.082 11.9515C144.082 11.6795 143.945 11.2716 144.22 11.2716C144.631 11.1356 145.179 11.2716 145.59 11.2716C145.727 11.2716 145.727 11.5435 145.727 11.5435C145.727 11.5435 145.727 11.8155 145.727 12.2234Z" fill="white"/>
<path d="M62.2645 8.6887C62.2645 6.78497 62.2645 4.88124 62.2645 2.97751C62.2645 2.56957 62.4016 2.43359 62.8127 2.43359C65.4163 2.43359 67.8828 2.43359 70.4864 2.43359C71.0346 2.43359 71.1716 2.70556 71.1716 3.1135C71.1716 3.52144 71.1716 3.92938 70.4864 3.92938C68.568 3.92938 66.5125 3.92938 64.5941 3.92938C64.183 3.92938 63.9089 4.06536 63.9089 4.60928C63.9089 7.46488 63.9089 10.4565 63.9089 13.312C63.9089 13.856 64.0459 13.856 64.457 13.856C66.3755 13.856 68.431 13.856 70.3494 13.856C70.8975 13.856 71.1716 13.992 71.1716 14.6719C71.1716 15.2158 70.8975 15.3518 70.3494 15.3518C67.8828 15.3518 65.4163 15.3518 62.9497 15.3518C62.2645 15.3518 62.1275 15.2158 62.1275 14.5359C62.2645 12.4962 62.2645 10.5924 62.2645 8.6887Z" fill="white"/>
<path d="M89.969 8.82494C89.969 7.0572 89.969 5.28944 89.969 3.5217C89.969 2.97777 90.106 2.8418 90.6542 2.8418C92.9837 2.8418 95.4503 2.8418 97.7798 2.8418C98.3279 2.8418 98.465 3.11375 98.465 3.5217C98.465 3.92964 98.465 4.2016 97.9168 4.2016C95.9984 4.2016 94.0799 4.2016 92.1615 4.2016C91.7504 4.2016 91.6134 4.33758 91.6134 4.74552C91.6134 7.46514 91.6134 10.1848 91.6134 13.0403C91.6134 13.4483 91.7504 13.7202 92.1615 13.7202C94.0799 13.7202 95.8614 13.7202 97.7798 13.7202C98.3279 13.7202 98.465 13.8562 98.465 14.4002C98.465 14.9441 98.1909 15.0801 97.7798 15.0801C95.4503 15.0801 93.1207 15.0801 90.7912 15.0801C90.2431 15.0801 90.106 14.9441 90.106 14.4002C89.969 12.4964 89.969 10.5927 89.969 8.82494Z" fill="white"/>
<path d="M113.532 8.82495C113.532 7.0572 113.532 5.28945 113.532 3.5217C113.532 2.97777 113.669 2.8418 114.217 2.8418C116.547 2.8418 119.013 2.8418 121.343 2.8418C121.891 2.8418 122.028 3.11375 122.028 3.5217C122.028 4.06562 121.891 4.2016 121.343 4.2016C119.424 4.2016 117.506 4.2016 115.587 4.2016C115.176 4.2016 115.039 4.33758 115.039 4.74552C115.039 7.46514 115.039 10.3207 115.039 13.0403C115.039 13.5843 115.176 13.5843 115.724 13.5843C117.643 13.5843 119.424 13.5843 121.343 13.5843C121.891 13.5843 122.028 13.7203 122.028 14.2642C122.028 14.8081 121.891 14.9441 121.343 14.9441C119.013 14.9441 116.684 14.9441 114.354 14.9441C113.806 14.9441 113.669 14.8081 113.669 14.2642C113.532 12.4964 113.532 10.7287 113.532 8.82495Z" fill="white"/>
<path d="M103.243 5.01749C105.161 7.32916 107.079 9.50485 109.135 11.9525C109.135 11.5446 109.135 11.4086 109.135 11.1366C109.135 8.55299 109.135 5.96935 109.135 3.5217C109.135 2.84179 109.409 2.8418 109.957 2.8418C110.505 2.8418 110.779 2.97778 110.779 3.65768C110.779 7.32916 110.779 11.0006 110.779 14.6721C110.779 14.9441 110.916 15.216 110.642 15.352C110.368 15.488 110.094 15.216 109.957 15.0801C107.765 12.4964 105.572 9.91279 103.38 7.32916C102.832 6.78524 103.243 5.96935 103.106 5.42543C103.106 5.15347 103.106 5.01749 103.243 5.01749Z" fill="white"/>
<path d="M33.218 8.68743C33.218 10.5912 33.218 12.4949 33.218 14.2626C33.218 15.0785 33.218 15.0785 32.3958 15.0785C31.8476 15.0785 31.5736 14.9425 31.5736 14.2626C31.5736 12.7668 31.5736 11.407 31.5736 9.91126C31.5736 9.36733 31.4366 9.23135 30.8884 9.36733C29.244 9.36733 27.4626 9.36733 25.8183 9.36733C25.1331 9.36733 25.2701 9.09537 25.2701 8.68743C25.2701 8.27949 25.1331 7.87155 25.8183 7.87155C27.4626 7.87155 29.244 7.87155 30.8884 7.87155C31.2995 7.87155 31.4366 7.73556 31.4366 7.32762C31.4366 5.83183 31.4366 4.33605 31.4366 2.84026C31.4366 2.29633 31.7106 2.16035 32.1217 2.16035C32.5328 2.16035 33.0809 2.02437 33.0809 2.84026C33.218 4.87997 33.218 6.7837 33.218 8.68743Z" fill="white"/>
<path d="M22.9424 8.68895C22.9424 6.78522 22.9424 4.88148 22.9424 2.97776C22.9424 2.29785 23.3535 2.29785 23.7645 2.29785C24.1756 2.29785 24.5867 2.29785 24.5867 2.97776C24.5867 6.78521 24.5867 10.7287 24.5867 14.5361C24.5867 15.216 24.3127 15.216 23.7645 15.216C23.3535 15.216 22.8053 15.352 22.8053 14.6721C22.9424 12.6324 22.9424 10.5927 22.9424 8.68895Z" fill="white"/>
<path d="M150.936 12.3603C150.936 11.6804 150.936 11.0005 150.936 10.3206C150.936 10.0486 151.073 9.91266 151.073 9.77668C152.444 7.60099 153.814 5.56127 155.184 3.38558C155.458 2.97764 156.281 2.70568 156.829 2.97764C157.103 3.11362 156.966 3.2496 156.966 3.38558C156.829 3.65754 156.692 3.79352 156.555 3.9295C155.321 5.83323 153.951 7.87295 152.718 9.77668C152.581 10.0486 152.444 10.3206 152.444 10.7285C152.444 11.9524 152.444 13.1762 152.444 14.4C152.444 15.0799 152.033 14.9439 151.622 15.0799C151.21 15.0799 150.799 15.0799 150.799 14.4C150.936 13.7201 150.936 13.0402 150.936 12.3603Z" fill="white"/>
<path d="M100.643 8.82563C100.643 6.9219 100.643 5.15415 100.643 3.25042C100.643 2.97846 100.506 2.70649 100.917 2.70649C101.191 2.57051 101.328 2.84248 101.465 2.97846C102.013 3.52238 102.287 4.20229 102.287 5.01817C102.287 8.14573 102.287 11.1373 102.287 14.2649C102.287 14.8088 102.15 15.0807 101.465 15.0807C100.917 15.0807 100.643 14.9448 100.643 14.2649C100.643 12.4971 100.643 10.5934 100.643 8.82563Z" fill="white"/>
<path d="M150.251 9.23263C149.84 8.6887 149.566 8.14478 149.155 7.60085C148.333 6.24105 147.374 4.88124 146.552 3.52143C146.415 3.38545 146.278 3.1135 146.415 2.84153C146.552 2.56957 146.826 2.70555 146.963 2.70555C147.511 2.56957 147.922 2.84153 148.196 3.38545C149.018 4.74526 149.84 5.96909 150.8 7.3289C151.074 7.73684 151.074 8.0088 150.8 8.41675C150.663 8.68871 150.525 8.96067 150.251 9.23263Z" fill="white"/>
<path d="M67.7539 8.00829C68.5761 8.00829 69.3983 8.00829 70.2205 8.00829C70.6316 8.00829 70.7686 8.14427 70.7686 8.55221C70.7686 8.96015 70.9057 9.36809 70.2205 9.36809C68.4391 9.36809 66.7947 9.36809 65.0133 9.36809C64.7392 9.36809 64.6022 9.23211 64.7392 8.96015C64.7392 8.68818 64.7392 8.5522 64.7392 8.28024C64.7392 7.8723 64.8763 7.73633 65.2874 7.73633C66.1096 8.00829 66.9318 8.00829 67.7539 8.00829Z" fill="white"/>
<path d="M95.1611 8.1416C95.9833 8.1416 96.6684 8.1416 97.4906 8.1416C98.0388 8.1416 98.0388 8.41356 98.0388 8.82151C98.0388 9.22945 98.0388 9.50141 97.4906 9.50141C95.9833 9.50141 94.3389 9.50141 92.8316 9.50141C92.5575 9.50141 92.4205 9.36543 92.4205 9.09347C92.4205 8.14161 92.4205 8.1416 93.2427 8.1416C93.9278 8.1416 94.4759 8.1416 95.1611 8.1416Z" fill="white"/>
<path d="M118.728 8.1416C119.55 8.1416 120.235 8.1416 121.058 8.1416C121.606 8.1416 121.743 8.41356 121.743 8.82151C121.743 9.36543 121.606 9.50141 121.058 9.50141C119.55 9.50141 118.043 9.50141 116.536 9.50141C116.124 9.50141 115.987 9.50141 115.987 9.09347C115.987 8.14161 115.987 8.1416 116.947 8.1416C117.495 8.1416 118.043 8.1416 118.728 8.1416Z" fill="white"/>
<path d="M143.254 9.91156C142.569 9.91156 141.883 9.91156 141.061 9.91156C140.513 9.91156 140.513 9.50362 140.513 9.23166C140.513 8.82372 140.513 8.55176 141.061 8.55176C142.432 8.55176 143.802 8.55176 145.172 8.55176C145.857 8.55176 145.72 9.09568 145.72 9.36764C145.72 9.77558 145.583 9.91156 145.172 9.91156C144.487 9.91156 143.939 9.91156 143.254 9.91156Z" fill="white"/>
<path d="M0.466797 6.78516C1.97412 1.75396 7.72934 -0.966251 12.5254 1.07324C12.5254 1.07324 12.6628 1.07398 12.7998 1.20996C11.9776 1.75388 11.2919 2.43362 10.4697 2.97754C10.3328 3.11312 10.1958 2.97754 9.92188 2.97754C5.26286 2.29767 1.21874 6.87671 3 11.5L3.07031 11.6797H3.07422C4.58151 14.5352 6.77357 15.7591 9.78809 15.4873C13.3509 15.2153 15.9554 11.8158 15.4072 8.28027V7.88086C14.315 8.69371 13.223 9.50773 12.1309 10.4561C11.1718 11.4077 10.0758 11.6796 8.84277 11.6797H7.47168C9.8932 9.67723 12.1827 7.80553 14.4697 5.93652C14.334 5.64744 14.1326 5.14425 13.625 5.01758C11.7069 6.51313 9.7892 8.14508 7.87109 9.64062C7.73406 9.77661 7.4593 9.91285 7.32227 10.0488C6.50022 10.5927 6.50061 10.5924 6.22656 9.64062C5.95262 8.68902 6.08932 8.14537 6.91113 7.60156C9.24067 5.83381 11.5709 4.06584 13.9004 2.16211C14.3114 1.7543 14.5853 1.75403 14.8594 2.29785C14.821 2.35114 14.7859 2.40552 14.75 2.45801C15.3249 2.91472 16.1371 3.57191 16.7031 4.16699C17.0974 3.90591 17.4924 3.64032 17.8867 3.24902C18.1606 2.97729 18.2974 3.11299 18.5713 3.38477C19.1194 4.60859 19.1194 4.60868 18.1602 5.56055C17.7765 5.68753 17.63 5.93156 17.501 6.07422C19.0736 10.1346 17.2879 15.0967 12.9404 17.1191C8.00729 19.4308 1.9979 16.8711 0.353516 11.8398L0.329102 11.6797H0.336914C0.0629968 11.2703 -0.196633 8.99934 0.466797 6.78516Z" fill="white"/>
</svg>
