<svg width="129" height="16" viewBox="0 0 129 16" fill="none" xmlns="http://www.w3.org/2000/svg">
<path d="M0.996765 10.0529C0.791259 9.77075 0.690041 8.40122 0.984498 5.98423C2.2114 1.85724 6.86442 -0.341986 10.8258 1.34347C10.8718 1.36341 10.9132 1.39408 11.0374 1.46769C10.3856 1.95539 9.76758 2.42314 9.14339 2.8817C9.0207 2.97218 8.86734 2.92004 8.73084 2.9001C4.93205 2.34493 1.68383 6.03484 3.1055 9.88424C3.12391 9.93332 3.12851 9.98699 3.13924 10.0376C2.42457 10.0422 1.7099 10.0468 0.995232 10.0529H0.996765Z" fill="#04578E"/>
<path d="M66.6917 7.55489C66.8819 7.66378 67.0797 7.76653 67.2668 7.88616C69.0075 8.99497 68.8986 11.5024 67.0721 12.4686C66.451 12.7968 65.7777 12.9195 65.0891 12.9441C64.3499 12.9686 63.6107 12.9379 62.8715 12.9563C62.577 12.9625 62.4727 12.8766 62.4819 12.5729C62.5095 11.5822 62.3945 11.8015 63.2426 11.7785C63.9465 11.7586 64.6536 11.7877 65.3529 11.7264C66.1304 11.6573 66.7899 11.3476 67.0322 10.5209C67.3773 9.3431 66.5706 8.28337 65.1735 8.18215C64.1398 8.107 63.0969 8.16374 62.0587 8.14687C61.709 8.14074 61.7719 8.37078 61.7703 8.57322C61.7688 9.8676 61.7473 11.1635 61.7811 12.4564C61.7933 12.9088 61.6154 13.0008 61.2336 12.9533C60.8931 12.9103 60.4468 13.1327 60.4529 12.4502C60.479 9.28482 60.4652 6.11788 60.4621 2.95094C60.4621 2.66569 60.4621 2.42337 60.8563 2.43258C62.2979 2.46785 63.7441 2.3559 65.1827 2.49699C66.0062 2.57674 66.7577 2.85739 67.3558 3.45704C68.5014 4.60419 68.322 6.41081 66.977 7.30798C66.8804 7.37239 66.7485 7.3954 66.6917 7.55796V7.55489ZM63.4834 7.00739C63.4834 7.00739 63.4834 6.99512 63.4834 6.99052C63.9926 6.99052 64.5033 6.99818 65.0124 6.98592C65.1673 6.98285 65.3237 6.93531 65.4771 6.89543C66.339 6.67306 66.7807 6.09795 66.7286 5.27439C66.6718 4.38028 66.0139 3.73463 64.9649 3.66101C64.0202 3.59353 63.0678 3.62727 62.12 3.60273C61.8363 3.59507 61.7611 3.71162 61.7657 3.97541C61.778 4.86644 61.7841 5.75748 61.7627 6.64852C61.755 6.97058 61.89 7.02579 62.1675 7.01352C62.6062 6.99512 63.0463 7.00892 63.4865 7.00892L63.4834 7.00739Z" fill="white"/>
<path d="M0.99726 10.053C1.71193 10.0484 2.4266 10.0438 3.14127 10.0377C4.34977 12.3642 6.20699 13.4392 8.62246 13.2138C11.4827 12.9454 13.642 10.1527 13.1666 7.33695C13.1436 7.19892 13.1313 7.05936 13.1129 6.92133C13.6236 6.35849 14.2355 5.91221 14.8398 5.45825C16.171 8.81383 14.7432 12.9086 11.1805 14.6079C7.16551 16.5234 2.31925 14.4376 1.02793 10.2585C1.008 10.1926 1.00646 10.122 0.995728 10.0545L0.99726 10.053Z" fill="#04578E"/>
<path d="M47.1527 8.75037C47.9456 9.85765 48.7415 10.9435 49.5022 12.0538C49.6663 12.2915 50.1126 12.5001 49.812 12.8835C49.6295 13.1181 48.6219 12.9234 48.4164 12.6427C47.898 11.9372 47.395 11.2195 46.8781 10.5125C46.4871 9.97727 46.1911 9.25186 45.6604 8.97581C45.1467 8.70896 44.386 8.93747 43.7388 8.89146C43.2757 8.85926 43.1376 8.98808 43.1576 9.46044C43.199 10.4558 43.153 11.4542 43.179 12.451C43.1898 12.8513 43.0471 12.9632 42.6637 12.9586C41.8663 12.9494 41.8663 12.9678 41.8663 12.1627C41.8663 9.10157 41.8663 6.03891 41.8693 2.97779C41.8693 2.78609 41.7727 2.50697 42.0779 2.4625C42.4214 2.41342 42.7849 2.36128 43.1131 2.5039C43.2327 2.55605 43.1683 2.76155 43.1683 2.89805C43.1714 4.36726 43.179 5.83801 43.1637 7.30722C43.1606 7.64002 43.2373 7.77191 43.5977 7.75198C44.5455 7.6983 45.4994 7.82866 46.4426 7.65076C47.5361 7.44525 48.1419 6.69071 48.1127 5.56962C48.0851 4.50069 47.4318 3.77528 46.3199 3.66486C45.6558 3.59891 44.9826 3.59431 44.3155 3.61885C43.8661 3.63572 43.8676 3.38267 43.9121 3.09282C43.9505 2.8367 43.6943 2.41189 44.2802 2.43182C45.1237 2.46096 45.9733 2.36894 46.8076 2.53458C48.3136 2.83057 49.2645 3.79675 49.3872 5.12794C49.5513 6.91308 48.9271 8.01423 47.3888 8.65375C47.3244 8.67982 47.2616 8.70743 47.1527 8.7519V8.75037Z" fill="white"/>
<path d="M106.974 8.84517C107.78 9.97085 108.567 11.0643 109.346 12.1639C109.463 12.328 109.693 12.4845 109.581 12.7099C109.472 12.9292 109.213 12.8541 109.007 12.874C108.576 12.9169 108.288 12.7482 108.041 12.3863C107.348 11.3757 106.605 10.3972 105.909 9.38654C105.694 9.07521 105.461 8.94945 105.084 8.97706C104.629 9.0108 104.167 9.00926 103.711 8.97706C103.31 8.94945 103.161 9.05681 103.176 9.48776C103.212 10.4493 103.169 11.4125 103.195 12.374C103.208 12.8893 102.897 12.8725 102.543 12.8725C102.19 12.8725 101.888 12.8955 101.891 12.3756C101.908 9.3482 101.905 6.32235 101.893 3.29497C101.891 2.88856 102.061 2.79194 102.434 2.79654C103.187 2.80574 103.187 2.79041 103.187 3.54188C103.187 4.83627 103.198 6.13218 103.179 7.42656C103.175 7.77009 103.271 7.88205 103.623 7.86825C104.379 7.83911 105.138 7.87898 105.892 7.83911C107.368 7.76089 108.141 6.70882 107.808 5.27795C107.635 4.53414 106.97 4.02344 106.035 3.96517C105.457 3.92836 104.872 3.93909 104.293 3.95136C104.018 3.9575 103.885 3.90842 103.88 3.58636C103.868 2.80574 103.85 2.80114 104.652 2.80728C105.319 2.81188 105.987 2.7766 106.651 2.90543C108.021 3.16921 108.96 4.08479 109.088 5.31016C109.268 7.02935 108.684 8.12283 107.271 8.71174C107.19 8.74548 107.11 8.78229 106.97 8.84517H106.974Z" fill="white"/>
<path d="M34.8243 2.68489C37.568 2.69256 39.7488 4.86725 39.8316 7.67378C39.9068 10.2779 37.7459 12.6335 35.151 12.7777C32.4073 12.9295 30.0885 10.9588 29.8186 8.26116C29.6867 6.94991 30.021 5.77515 30.7771 4.70008C30.9826 4.40716 31.1114 4.35961 31.4151 4.61726C31.8092 4.95159 31.9503 5.15403 31.5976 5.677C30.6897 7.02813 30.8032 8.77953 31.8092 10.0984C32.7524 11.3376 33.99 11.9618 35.582 11.6121C38.3594 11.0033 39.5372 7.51275 37.7428 5.24605C36.5696 3.76303 34.8259 3.35969 33.1266 4.17405C32.8874 4.28907 32.0822 3.88266 32.0439 3.61734C32.0178 3.4333 32.1988 3.40417 32.3077 3.34129C33.0852 2.89653 33.9226 2.66189 34.8243 2.68336V2.68489Z" fill="white"/>
<path d="M119.534 10.4844C119.745 11.1837 119.261 11.6438 118.647 12.0334C114.868 14.4412 110.57 12.153 110.292 8.16402C110.154 6.18257 110.959 4.56153 112.638 3.47112C114.402 2.3255 116.255 2.38684 118.095 3.33156C118.42 3.49872 118.706 3.74257 119.009 3.94961C119.31 4.15512 119.339 4.38363 119.067 4.63361C118.821 4.86212 118.646 5.31914 118.189 4.91733C117.557 4.36062 116.833 3.97568 115.993 3.85606C114.43 3.63368 113 4.34529 112.169 5.73629C111.329 7.14109 111.428 8.96457 112.421 10.2774C113.744 12.0303 116.112 12.3646 117.913 11.084C118.325 10.7911 118.179 10.4138 118.225 10.0534C118.252 9.84487 118.087 9.51668 118.356 9.4538C118.704 9.37252 119.089 9.42313 119.455 9.4538C119.563 9.463 119.534 9.63017 119.535 9.73138C119.538 9.94149 119.535 10.1516 119.535 10.4844H119.534Z" fill="white"/>
<path d="M51.3904 7.63741C51.3904 6.0639 51.4011 4.4904 51.3827 2.9169C51.3781 2.5519 51.4947 2.42307 51.8612 2.42461C53.9546 2.43534 56.048 2.43841 58.143 2.42154C58.6061 2.41847 58.646 2.65772 58.6491 3.01659C58.6521 3.39999 58.6 3.64844 58.1138 3.64231C56.4959 3.62237 54.8763 3.64537 53.2584 3.62697C52.8719 3.62237 52.7109 3.68678 52.7155 4.13C52.74 6.50712 52.7369 8.88425 52.717 11.2629C52.7139 11.6616 52.8305 11.7598 53.22 11.7537C54.8211 11.7322 56.4222 11.7598 58.0234 11.7368C58.5126 11.7291 58.6567 11.9024 58.6598 12.3778C58.6613 12.8563 58.4804 12.9637 58.0356 12.9591C56.0296 12.9392 54.0236 12.933 52.0192 12.9622C51.4947 12.9698 51.3735 12.795 51.3827 12.3042C51.4119 10.7491 51.3935 9.1925 51.3935 7.63741H51.3904Z" fill="white"/>
<path d="M74.0224 7.746C74.0224 6.29519 74.0347 4.84285 74.0147 3.39204C74.0086 2.96722 74.1297 2.80926 74.5822 2.81386C76.5176 2.83533 78.4546 2.83686 80.39 2.81386C80.8486 2.80772 80.9068 3.0071 80.9022 3.3813C80.8976 3.74017 80.8731 3.96715 80.4007 3.95948C78.8518 3.93187 77.3028 3.95948 75.7539 3.94107C75.3843 3.93647 75.2815 4.04383 75.2846 4.40883C75.3014 6.6648 75.3014 8.92076 75.2846 11.1767C75.2815 11.5647 75.3797 11.6874 75.7815 11.6813C77.2952 11.6583 78.8088 11.689 80.3225 11.6629C80.798 11.6552 80.9068 11.8208 80.9099 12.2687C80.913 12.738 80.7213 12.8131 80.3133 12.81C78.4132 12.7947 76.5115 12.7901 74.6113 12.8116C74.142 12.8177 74.0071 12.6597 74.0132 12.2058C74.0362 10.7197 74.0224 9.23362 74.0224 7.746Z" fill="white"/>
<path d="M93.2521 7.77312C93.2521 6.30544 93.2628 4.83623 93.2444 3.36854C93.2398 2.9698 93.3456 2.81184 93.7766 2.81491C95.712 2.83331 97.6475 2.83638 99.5829 2.81337C100.057 2.80724 100.135 3.00354 100.135 3.40689C100.135 3.79949 100.04 3.96513 99.6028 3.95746C98.0554 3.93292 96.5064 3.95746 94.959 3.93905C94.6063 3.93445 94.5158 4.04181 94.5173 4.38227C94.5311 6.65357 94.5357 8.92641 94.5143 11.1977C94.5097 11.6179 94.6691 11.6808 95.0357 11.6762C96.5478 11.6593 98.0615 11.6839 99.5752 11.6609C100.028 11.6532 100.135 11.8219 100.14 12.2421C100.143 12.6792 100 12.8126 99.563 12.808C97.6459 12.7881 95.7273 12.7881 93.8103 12.808C93.3625 12.8126 93.2398 12.6547 93.2459 12.2298C93.2674 10.7438 93.2536 9.25767 93.2536 7.77159L93.2521 7.77312Z" fill="white"/>
<path d="M84.8321 4.65442C86.4086 6.51931 87.9852 8.38573 89.6584 10.3656V9.71692C89.6584 7.61739 89.6737 5.51785 89.6476 3.41985C89.6415 2.90915 89.8332 2.80793 90.2979 2.80947C90.7672 2.811 90.9942 2.88768 90.9896 3.43365C90.9666 6.44263 90.9788 9.4516 90.9758 12.4606C90.9758 12.6431 91.0632 12.8946 90.8469 12.982C90.6046 13.0802 90.4191 12.8931 90.2688 12.7136C88.479 10.5773 86.6831 8.44401 84.9041 6.29847C84.5023 5.81384 84.8152 5.228 84.7094 4.69583C84.7508 4.68202 84.7922 4.66822 84.8351 4.65442H84.8321Z" fill="white"/>
<path d="M27.7095 7.68284C27.7095 9.22106 27.7095 10.7578 27.7095 12.296C27.7095 12.9355 27.6895 12.9248 27.0086 12.9585C26.524 12.9831 26.3185 12.8619 26.3369 12.3282C26.3767 11.1412 26.3261 9.95107 26.3614 8.76404C26.3737 8.32849 26.2218 8.25488 25.8308 8.26101C24.4597 8.28248 23.0871 8.24108 21.716 8.28402C21.1961 8.30089 21.2467 8.03097 21.259 7.70891C21.2713 7.39605 21.1455 7.06325 21.7206 7.08165C23.1086 7.12613 24.4996 7.08319 25.8875 7.10466C26.2556 7.11079 26.366 7.01417 26.3583 6.6415C26.3353 5.4192 26.3691 4.19537 26.3399 2.97307C26.3277 2.50071 26.5347 2.40409 26.9396 2.43016C27.3153 2.45317 27.7294 2.33048 27.7187 2.96693C27.6926 4.5389 27.7095 6.1124 27.7095 7.68437V7.68284Z" fill="white"/>
<path d="M14.8388 5.45744C14.2345 5.91292 13.6226 6.35768 13.1119 6.92052C12.2316 7.63979 11.3084 8.31458 10.4818 9.08907C9.69653 9.82521 8.77482 10.0783 7.7565 10.1396C7.42983 10.1595 7.10164 10.1427 6.61548 10.1427C8.63987 8.47562 10.5477 6.90518 12.4571 5.33321C13.0536 4.9452 13.6042 4.50199 14.1057 3.99589C14.437 3.74131 14.7882 3.5082 15.0918 3.22294C15.371 2.96222 15.4614 3.07111 15.5995 3.35023C16.0826 4.32715 16.0749 4.4023 15.2314 5.10777C15.098 5.21972 14.9707 5.33935 14.8403 5.4559L14.8388 5.45744Z" fill="#95C840"/>
<path d="M11.7733 4.61338C10.1937 5.89396 8.61405 7.17454 7.03442 8.45359C6.88412 8.57474 6.73076 8.69283 6.58046 8.81399C5.95628 9.31702 5.91487 9.30475 5.64649 8.5272C5.39344 7.79259 5.5284 7.3049 6.15412 6.81874C8.05275 5.34492 9.96672 3.88798 11.8546 2.40036C12.215 2.11664 12.4481 2.11817 12.6843 2.49698C12.2089 3.13037 11.9098 3.83737 11.7718 4.61338H11.7733Z" fill="#0279B3"/>
<path d="M19.3113 7.63404C19.3113 6.08048 19.3358 4.52538 19.299 2.97181C19.2852 2.3875 19.6119 2.42891 20.0014 2.42277C20.3864 2.41817 20.6624 2.41664 20.6578 2.95648C20.6348 6.11728 20.6348 9.27809 20.6578 12.4374C20.6609 12.9435 20.4155 12.9757 20.0413 12.9511C19.6931 12.9297 19.2898 13.0754 19.3005 12.4512C19.3297 10.8455 19.3097 9.23821 19.3097 7.63251L19.3113 7.63404Z" fill="white"/>
<path d="M123.762 10.6646C123.762 10.088 123.777 9.51134 123.754 8.93623C123.747 8.7384 123.826 8.6019 123.92 8.45774C125.044 6.70787 126.17 4.95954 127.297 3.2112C127.518 2.86767 128.219 2.67443 128.597 2.8416C128.805 2.93362 128.765 3.08698 128.688 3.23267C128.599 3.40137 128.49 3.5624 128.386 3.72343C127.348 5.34141 126.314 6.96246 125.268 8.5743C125.108 8.81968 125.038 9.06352 125.041 9.35491C125.055 10.3502 125.024 11.3471 125.055 12.3409C125.072 12.8593 124.766 12.8439 124.412 12.8439C124.055 12.8439 123.739 12.8516 123.768 12.3378C123.8 11.7811 123.776 11.2198 123.776 10.6616H123.765L123.762 10.6646Z" fill="white"/>
<path d="M82.6837 7.70527C82.6837 6.18544 82.6806 4.66715 82.6868 3.14733C82.6868 2.97096 82.6009 2.73632 82.8585 2.65503C83.0778 2.58602 83.202 2.74245 83.3477 2.88048C83.8431 3.35283 84.0348 3.8896 84.021 4.59814C83.9735 7.12863 83.9903 9.66218 84.0118 12.1942C84.0164 12.6957 83.8615 12.8659 83.3508 12.8598C82.8677 12.8537 82.6591 12.7432 82.6714 12.2111C82.7051 10.7096 82.6837 9.20822 82.6837 7.70527Z" fill="white"/>
<path d="M123.264 8.12936C122.946 7.63553 122.667 7.19845 122.387 6.76136C121.677 5.65868 120.965 4.55754 120.258 3.45179C120.158 3.29536 119.988 3.13587 120.105 2.93496C120.21 2.75246 120.425 2.85061 120.591 2.82301C121.088 2.74172 121.39 2.94263 121.652 3.37665C122.311 4.46859 123.011 5.53906 123.73 6.5942C123.957 6.92699 123.963 7.16624 123.71 7.4607C123.555 7.64166 123.443 7.85944 123.265 8.12936H123.264Z" fill="white"/>
<path d="M55.8881 7.04933C56.5736 7.04933 57.2591 7.0616 57.9447 7.04473C58.3097 7.03552 58.4063 7.20882 58.3695 7.52782C58.3357 7.82841 58.5152 8.25016 57.9615 8.25169C56.5383 8.25629 55.1136 8.25169 53.6904 8.25629C53.4879 8.25629 53.4036 8.17348 53.4128 7.97564C53.4205 7.8008 53.4312 7.62444 53.4097 7.45267C53.3699 7.11987 53.5186 7.03552 53.8315 7.04319C54.517 7.0616 55.2025 7.04933 55.8881 7.04933Z" fill="white"/>
<path d="M78.2778 7.21639C78.9097 7.21639 79.54 7.23019 80.1718 7.21179C80.5767 7.19952 80.6319 7.42189 80.6242 7.74242C80.6181 8.04915 80.6518 8.3436 80.1872 8.33747C78.9081 8.32367 77.6275 8.32673 76.347 8.33747C76.0786 8.339 75.9866 8.26232 75.9789 7.98474C75.9574 7.21485 75.9436 7.21639 76.6997 7.21639C77.2257 7.21639 77.7518 7.21639 78.2778 7.21639Z" fill="white"/>
<path d="M97.4855 7.21625C98.1004 7.21625 98.7185 7.24232 99.3319 7.20705C99.7951 7.18097 99.8442 7.43402 99.858 7.78522C99.8733 8.17783 99.7384 8.34806 99.3105 8.3404C98.079 8.31739 96.8475 8.32659 95.6175 8.33733C95.3368 8.3404 95.2142 8.28519 95.2111 7.96772C95.2034 7.21625 95.185 7.21625 95.9549 7.21625C96.4656 7.21625 96.9748 7.21625 97.4855 7.21625Z" fill="white"/>
<path d="M117.473 8.67192C116.892 8.67192 116.312 8.65505 115.733 8.67652C115.242 8.69492 115.325 8.36672 115.32 8.07533C115.316 7.78855 115.274 7.51556 115.725 7.52323C116.851 7.54317 117.976 7.5401 119.102 7.52476C119.676 7.51709 119.498 7.92351 119.536 8.22256C119.578 8.54923 119.479 8.69799 119.111 8.67805C118.568 8.64891 118.021 8.67038 117.476 8.67038L117.473 8.67192Z" fill="white"/>
<path d="M11.7742 4.6136C11.9123 3.83758 12.2113 3.12905 12.6867 2.49719C13.2496 2.91281 13.6867 3.44497 14.1038 3.99708C13.6039 4.50318 13.0518 4.9464 12.4552 5.3344C12.2512 5.07369 12.173 4.69181 11.7727 4.61513L11.7742 4.6136Z" fill="#04578E"/>
</svg>
