<svg width="114" height="74" viewBox="0 0 114 74" fill="none" xmlns="http://www.w3.org/2000/svg">
<g clip-path="url(#clip0_6_242)">
<path d="M3.52029 40.124L3.22693 42.0848H6.94279L6.64943 44.2416H3.03136L2.54243 47.3788H0L1.369 37.7711H8.31179L8.01843 40.124H3.52029Z" fill="white"/>
<path d="M13.69 37.6729C15.2546 37.6729 16.428 38.1631 17.1125 39.0454C17.8948 39.9278 18.0904 41.2023 17.8948 42.7709C17.6992 44.3395 17.1125 45.5159 16.1347 46.3002C15.1568 47.0845 13.9834 47.5747 12.5166 47.5747C10.952 47.5747 9.7786 47.0845 9.0941 46.2022C8.31181 45.3199 8.11624 44.0454 8.31181 42.4768C8.50738 40.9081 9.0941 39.7317 10.072 38.9474C10.952 38.065 12.2232 37.6729 13.69 37.6729ZM12.7122 45.2218C13.4945 45.2218 14.0812 45.0257 14.4723 44.5356C14.9612 44.0454 15.2546 43.3591 15.3524 42.4768C15.548 40.8101 14.8635 39.9278 13.4945 39.9278C12.7122 39.9278 12.1255 40.1238 11.7343 40.614C11.2454 41.1042 10.952 41.7905 10.8542 42.6728C10.6587 44.4375 11.2454 45.2218 12.7122 45.2218ZM14.4723 34.3396L16.1347 35.32V35.8102C15.2546 36.3984 14.179 36.8886 13.0055 37.2807L12.4188 36.5945L14.4723 34.3396Z" fill="white"/>
<path d="M27.3801 41.3985C27.1845 42.8691 26.5 43.9475 25.3266 44.4377L26.9889 47.1827V47.3788H24.2509L22.8819 44.8298H21.3174L20.9262 47.3788H18.3838L19.7528 37.7711H23.6642C25.0332 37.7711 26.0111 38.0652 26.6956 38.7515C27.2823 39.4377 27.5756 40.3201 27.3801 41.3985ZM21.6107 42.771H23.2731C23.762 42.771 24.1531 42.673 24.4465 42.3789C24.7399 42.0848 24.9354 41.7906 24.9354 41.3005C24.9354 40.9083 24.8376 40.6142 24.6421 40.4181C24.3487 40.222 24.0554 40.026 23.4686 40.026H22.0019L21.6107 42.771Z" fill="white"/>
<path d="M39.3099 47.3788H36.7675L37.3542 42.2808L37.452 41.8887L34.4206 47.3788H32.856L31.3892 41.8887V42.2808L30.5092 47.3788H27.9667L29.7269 37.7711H32.5627L34.0295 43.0651C34.1272 43.2612 34.1272 43.4573 34.1272 43.7514C34.225 43.4573 34.3228 43.1632 34.5184 42.9671L37.452 37.8691H40.2877L39.3099 47.3788Z" fill="white"/>
<path d="M50.8487 37.869L50.1642 42.967C49.9686 44.5356 49.4797 45.712 48.5996 46.4963C47.7195 47.2806 46.6439 47.5748 45.1771 47.5748C42.2435 47.5748 40.9723 46.0061 41.3635 42.7709L42.048 37.869H44.5904L43.9059 42.967C43.8081 43.7513 43.9059 44.3395 44.1015 44.7316C44.297 45.1238 44.6882 45.3199 45.2749 45.3199C46.5461 45.3199 47.3284 44.5356 47.524 42.8689L48.2085 37.967H50.8487V37.869Z" fill="white"/>
<path d="M58.1824 45.1239L57.8891 47.3788H51.0441L52.4131 37.7711H54.9555L53.9776 45.0259H58.1824V45.1239Z" fill="white"/>
<path d="M66.0055 45.9082H61.8985L61.1162 47.3788H58.3782L63.2675 37.7711H66.7878L69.0369 47.3788H66.2989L66.0055 45.9082ZM65.5166 43.5553L64.9299 40.7122C64.8321 40.3201 64.8321 40.026 64.7343 39.8299C64.6365 40.124 64.5387 40.4181 64.3432 40.8103L63.072 43.4573H65.5166V43.5553Z" fill="white"/>
<path d="M83.1179 37.869L82.4334 42.967C82.2378 44.5356 81.7489 45.712 80.8688 46.4963C79.9888 47.2806 78.9131 47.5748 77.4463 47.5748C74.5128 47.5748 73.2415 46.0061 73.6327 42.7709L74.3172 37.869H76.8596L76.2729 42.8689C76.1751 43.6532 76.2729 44.2415 76.4685 44.6336C76.664 45.0258 77.0552 45.2218 77.6419 45.2218C78.9131 45.2218 79.6954 44.4375 79.891 42.7709L80.5755 37.869H83.1179Z" fill="white"/>
<path d="M86.9315 40.124L86.6382 42.0848H90.354L90.0607 44.2416H86.3448L85.9537 47.3788H83.4113L84.7802 37.7711H91.723L91.4297 40.124H86.9315Z" fill="white"/>
<path d="M102.773 47.3788H100.23L100.817 42.2808L100.915 41.8887L97.8836 47.3788H96.319L94.8522 41.8887V42.2808L93.9722 47.3788H91.4297L93.1899 37.7711H96.0257L97.4925 43.0651C97.5902 43.2612 97.5903 43.4573 97.5903 43.7514C97.688 43.4573 97.7858 43.1632 97.9814 42.9671L100.915 37.8691H103.751L102.773 47.3788Z" fill="white"/>
<path d="M109.911 37.6727C111.378 37.6727 112.747 37.9668 113.92 38.5551L113.138 40.4178C111.965 40.0256 110.889 39.9276 110.009 39.9276C109.227 39.9276 108.64 40.2217 108.053 40.7119C107.466 41.2021 107.173 41.8884 107.075 42.7707C106.978 43.457 107.075 44.1432 107.369 44.5354C107.662 45.0256 108.151 45.2217 108.835 45.2217C109.813 45.2217 110.693 45.1236 111.28 44.9275L111.378 44.0452H108.933L109.227 42.0844H113.92L113.431 46.3981C111.769 47.1824 110.204 47.5746 108.738 47.5746C107.271 47.5746 106.195 47.0844 105.413 46.202C104.631 45.3197 104.435 44.0452 104.631 42.4766C104.826 41.006 105.413 39.8296 106.391 38.9472C107.369 38.1629 108.542 37.6727 109.911 37.6727Z" fill="white"/>
<path d="M112.943 55.0253L98.9593 55.4174H84.9759H57.0092H29.0425H15.0591L1.07574 55.0253L15.0591 54.6331H29.0425H57.0092H84.9759H98.9593L112.943 55.0253Z" fill="white"/>
<path d="M80.5724 20.0252C79.5033 19.7324 78.4342 19.7324 77.365 19.9276C70.5616 21.1963 44.2225 26.271 40.1405 26.9542C39.8489 27.0518 39.5573 26.759 39.6545 26.3686L43.8338 8.8021C43.931 8.41173 43.5422 8.02137 43.1534 8.21655L1.16644 28.8084L1.26363 28.3205C1.36083 27.9301 1.6524 27.5397 1.94398 27.3445L49.1793 0.409204C49.6653 0.116429 50.1513 0.604388 50.0541 1.09235L45.2917 21.0987C45.1945 21.489 45.5832 21.8794 45.972 21.7818L75.81 16.4143C78.2398 16.0239 80.7668 16.1215 83.0994 16.8046C89.3197 18.6589 107.009 25.0023 113.035 27.1494C113.618 27.3445 114.395 27.7349 114.59 28.3205L80.5724 20.0252Z" fill="white"/>
<path d="M62.7862 14.9501L64.2441 12.3152C64.3413 12.12 64.0497 11.4368 63.7581 11.4368L57.8294 12.0224C57.635 12.0224 56.3715 9.87537 57.2462 8.50909C57.4406 8.02113 58.0238 7.63076 58.6069 7.72835L64.3413 8.4115C64.5356 8.4115 64.6328 8.3139 64.5356 8.11872C64.2441 7.1428 63.0778 4.11746 60.162 3.43431C55.3996 2.26321 51.5119 5.28856 51.9007 10.2657C51.9979 11.1441 52.2894 12.12 52.7754 12.9007C53.067 13.2911 53.2614 13.779 53.4557 14.0718C53.6501 14.3646 54.0389 14.5598 54.4277 14.6574L61.8143 15.4381C62.203 15.4381 62.5918 15.2429 62.7862 14.9501Z" fill="white"/>
</g>
<defs>
<clipPath id="clip0_6_242">
<rect width="114" height="73.1816" fill="white" transform="translate(0 0.580566)"/>
</clipPath>
</defs>
</svg>
