<svg width="114" height="74" viewBox="0 0 114 74" fill="none" xmlns="http://www.w3.org/2000/svg">
<path d="M0.174617 69.2679C-0.00848432 69.0164 -0.0986668 67.7962 0.163688 65.6427C1.25683 61.9657 5.40257 60.0062 8.93206 61.5079C8.97305 61.5257 9.00994 61.553 9.12063 61.6186C8.53989 62.0531 7.98922 62.4699 7.43308 62.8784C7.32377 62.9591 7.18713 62.9126 7.06552 62.8948C3.68087 62.4002 0.786777 65.6878 2.05346 69.1176C2.06985 69.1613 2.07395 69.2091 2.08352 69.2542C1.44676 69.2583 0.810007 69.2624 0.173251 69.2679H0.174617Z" fill="#04578E"/>
<path d="M58.7074 67.0411C58.8769 67.1382 59.0531 67.2297 59.2198 67.3363C60.7707 68.3242 60.6737 70.5583 59.0463 71.4192C58.4929 71.7116 57.893 71.8209 57.2795 71.8428C56.6209 71.8646 55.9623 71.8373 55.3037 71.8537C55.0413 71.8592 54.9484 71.7826 54.9566 71.5121C54.9812 70.6294 54.8787 70.8248 55.6343 70.8043C56.2615 70.7865 56.8914 70.8125 57.5145 70.7578C58.2073 70.6963 58.7949 70.4203 59.0108 69.6838C59.3182 68.6344 58.5995 67.6902 57.3547 67.6C56.4337 67.5331 55.5045 67.5836 54.5795 67.5686C54.2679 67.5631 54.3239 67.7681 54.3226 67.9484C54.3212 69.1017 54.3021 70.2563 54.3321 71.4082C54.3431 71.8113 54.1846 71.8933 53.8443 71.851C53.541 71.8127 53.1433 72.0108 53.1488 71.4028C53.172 68.5825 53.1597 65.7608 53.157 62.9391C53.157 62.685 53.157 62.4691 53.5082 62.4773C54.7926 62.5087 56.0812 62.4089 57.3629 62.5347C58.0966 62.6057 58.7662 62.8558 59.2991 63.39C60.3198 64.4121 60.16 66.0218 58.9616 66.8211C58.8755 66.8785 58.758 66.899 58.7074 67.0439V67.0411ZM55.8489 66.5533C55.8489 66.5533 55.8489 66.5424 55.8489 66.5383C56.3025 66.5383 56.7575 66.5451 57.2112 66.5342C57.3492 66.5315 57.4886 66.4891 57.6252 66.4536C58.3932 66.2554 58.7867 65.743 58.7402 65.0093C58.6897 64.2126 58.1035 63.6374 57.1688 63.5718C56.3271 63.5117 55.4786 63.5417 54.6341 63.5199C54.3813 63.513 54.3144 63.6169 54.3185 63.8519C54.3294 64.6458 54.3349 65.4397 54.3157 66.2336C54.3089 66.5205 54.4291 66.5697 54.6765 66.5588C55.0673 66.5424 55.4594 66.5547 55.8516 66.5547L55.8489 66.5533Z" fill="white"/>
<path d="M0.175072 69.267C0.811827 69.2629 1.44858 69.2588 2.08534 69.2533C3.16209 71.3262 4.81683 72.2841 6.96896 72.0832C9.51735 71.8441 11.4413 69.3558 11.0177 66.847C10.9972 66.7241 10.9863 66.5997 10.9699 66.4767C11.4249 65.9753 11.9701 65.5776 12.5085 65.1732C13.6945 68.1629 12.4224 71.8113 9.24816 73.3253C5.67085 75.032 1.35293 73.1736 0.202402 69.4501C0.184638 69.3913 0.183271 69.3285 0.173706 69.2684L0.175072 69.267Z" fill="#04578E"/>
<path d="M41.2985 68.1071C42.005 69.0937 42.7142 70.0611 43.3919 71.0504C43.5381 71.2622 43.9357 71.448 43.6679 71.7896C43.5053 71.9987 42.6076 71.8251 42.4245 71.5751C41.9626 70.9465 41.5144 70.307 41.0539 69.6771C40.7055 69.2002 40.4418 68.5539 39.969 68.308C39.5112 68.0702 38.8335 68.2738 38.2569 68.2328C37.8442 68.2041 37.7212 68.3189 37.739 68.7397C37.7759 69.6266 37.7349 70.5161 37.7581 71.4043C37.7677 71.7609 37.6406 71.8607 37.299 71.8566C36.5885 71.8484 36.5885 71.8648 36.5885 71.1474C36.5885 68.42 36.5885 65.6912 36.5912 62.9639C36.5912 62.793 36.5051 62.5444 36.777 62.5047C37.0831 62.461 37.4069 62.4145 37.6994 62.5416C37.8059 62.5881 37.7486 62.7712 37.7486 62.8928C37.7513 64.2018 37.7581 65.5122 37.7445 66.8213C37.7417 67.1178 37.81 67.2353 38.1312 67.2175C38.9756 67.1697 39.8255 67.2859 40.6659 67.1274C41.6401 66.9443 42.1799 66.272 42.1539 65.2731C42.1293 64.3207 41.5472 63.6744 40.5566 63.576C39.9649 63.5173 39.365 63.5132 38.7706 63.535C38.3703 63.55 38.3716 63.3246 38.4113 63.0663C38.4454 62.8381 38.2172 62.4596 38.7392 62.4774C39.4907 62.5034 40.2478 62.4214 40.9911 62.569C42.3329 62.8327 43.1801 63.6935 43.2894 64.8796C43.4356 66.4701 42.8795 67.4512 41.509 68.021C41.4516 68.0442 41.3956 68.0688 41.2985 68.1085V68.1071Z" fill="white"/>
<path d="M94.5976 68.191C95.3164 69.194 96.0174 70.1683 96.7115 71.148C96.8154 71.2942 97.0203 71.4336 96.9206 71.6344C96.8236 71.8298 96.5926 71.7629 96.4095 71.7806C96.0256 71.8189 95.7687 71.6686 95.5487 71.3461C94.931 70.4456 94.2697 69.5739 93.6493 68.6734C93.458 68.396 93.2503 68.2839 92.9142 68.3085C92.5084 68.3386 92.0971 68.3372 91.6912 68.3085C91.3332 68.2839 91.2007 68.3796 91.2144 68.7636C91.2458 69.6203 91.2075 70.4784 91.2308 71.3352C91.2431 71.7943 90.9657 71.7793 90.65 71.7793C90.3357 71.7793 90.0666 71.7998 90.0693 71.3365C90.0843 68.6392 90.0816 65.9433 90.0707 63.2459C90.0693 62.8838 90.221 62.7977 90.553 62.8018C91.2239 62.81 91.2239 62.7964 91.2239 63.4659C91.2239 64.6192 91.2335 65.7738 91.2171 66.9271C91.213 67.2332 91.2991 67.3329 91.612 67.3206C92.2856 67.2947 92.962 67.3302 93.6343 67.2947C94.9488 67.225 95.6375 66.2876 95.341 65.0127C95.1866 64.35 94.5949 63.895 93.7614 63.8431C93.2462 63.8103 92.7256 63.8198 92.2091 63.8308C91.9645 63.8362 91.8457 63.7925 91.8416 63.5055C91.8306 62.81 91.8142 62.8059 92.5289 62.8114C93.1233 62.8155 93.719 62.7841 94.3107 62.8989C95.5309 63.1339 96.3672 63.9496 96.4819 65.0414C96.6418 66.5732 96.1212 67.5474 94.8627 68.0721C94.7903 68.1022 94.7193 68.135 94.5949 68.191H94.5976Z" fill="white"/>
<path d="M30.3145 62.703C32.7591 62.7098 34.7021 64.6474 34.7759 67.148C34.8429 69.4682 32.9176 71.567 30.6056 71.6955C28.161 71.8308 26.095 70.0749 25.8545 67.6713C25.737 66.5031 26.0349 65.4564 26.7085 64.4985C26.8916 64.2375 27.0064 64.1952 27.277 64.4247C27.6281 64.7226 27.7539 64.903 27.4396 65.3689C26.6306 66.5727 26.7318 68.1332 27.6281 69.3083C28.4685 70.4124 29.5712 70.9685 30.9896 70.657C33.4642 70.1145 34.5136 67.0045 32.9149 64.9849C31.8695 63.6636 30.3159 63.3042 28.8019 64.0298C28.5887 64.1323 27.8714 63.7702 27.8372 63.5338C27.814 63.3698 27.9752 63.3439 28.0722 63.2878C28.765 62.8916 29.5111 62.6825 30.3145 62.7016V62.703Z" fill="white"/>
<path d="M105.789 69.6514C105.977 70.2745 105.545 70.6844 104.999 71.0315C101.632 73.1768 97.8018 71.1381 97.5545 67.584C97.4315 65.8186 98.1489 64.3743 99.6451 63.4027C101.217 62.382 102.867 62.4367 104.507 63.2784C104.797 63.4273 105.051 63.6446 105.321 63.8291C105.589 64.0122 105.615 64.2158 105.373 64.4385C105.153 64.6421 104.997 65.0493 104.59 64.6913C104.027 64.1953 103.382 63.8523 102.633 63.7457C101.241 63.5476 99.9676 64.1816 99.227 65.4209C98.4782 66.6726 98.567 68.2973 99.4511 69.4669C100.63 71.0288 102.74 71.3267 104.344 70.1857C104.712 69.9247 104.582 69.5886 104.623 69.2674C104.646 69.0816 104.5 68.7892 104.739 68.7332C105.049 68.6608 105.392 68.7058 105.719 68.7332C105.815 68.7414 105.789 68.8903 105.79 68.9805C105.793 69.1677 105.79 69.3549 105.79 69.6514H105.789Z" fill="white"/>
<path d="M45.0743 67.1164C45.0743 65.7144 45.0838 64.3125 45.0674 62.9105C45.0633 62.5853 45.1672 62.4705 45.4938 62.4719C47.3589 62.4815 49.2241 62.4842 51.0907 62.4692C51.5033 62.4664 51.5388 62.6796 51.5416 62.9993C51.5443 63.341 51.4979 63.5623 51.0647 63.5569C49.6231 63.5391 48.1802 63.5596 46.7386 63.5432C46.3942 63.5391 46.2508 63.5965 46.2549 63.9914C46.2767 66.1093 46.274 68.2273 46.2562 70.3466C46.2535 70.7019 46.3574 70.7894 46.7044 70.7839C48.131 70.7648 49.5575 70.7894 50.9841 70.7689C51.42 70.762 51.5484 70.9164 51.5511 71.34C51.5525 71.7664 51.3913 71.862 50.995 71.8579C49.2077 71.8401 47.4204 71.8347 45.6345 71.8606C45.1672 71.8675 45.0592 71.7117 45.0674 71.2744C45.0934 69.8889 45.077 68.502 45.077 67.1164H45.0743Z" fill="white"/>
<path d="M65.2387 67.2121C65.2387 65.9194 65.2496 64.6254 65.2318 63.3328C65.2264 62.9543 65.3343 62.8136 65.7374 62.8177C67.4618 62.8368 69.1876 62.8381 70.9121 62.8177C71.3206 62.8122 71.3726 62.9898 71.3685 63.3232C71.3644 63.643 71.3425 63.8452 70.9216 63.8384C69.5415 63.8138 68.1614 63.8384 66.7814 63.822C66.452 63.8179 66.3605 63.9135 66.3632 64.2387C66.3783 66.2488 66.3783 68.2588 66.3632 70.2688C66.3605 70.6145 66.4479 70.7238 66.806 70.7183C68.1546 70.6978 69.5033 70.7252 70.8519 70.7019C71.2755 70.6951 71.3726 70.8427 71.3753 71.2417C71.378 71.6598 71.2072 71.7268 70.8437 71.724C69.1507 71.7104 67.4564 71.7063 65.7634 71.7254C65.3452 71.7309 65.225 71.5901 65.2305 71.1857C65.251 69.8616 65.2387 68.5375 65.2387 67.2121Z" fill="white"/>
<path d="M82.3723 67.2357C82.3723 65.928 82.3818 64.619 82.3654 63.3113C82.3613 62.9561 82.4556 62.8153 82.8396 62.8181C84.564 62.8345 86.2884 62.8372 88.0129 62.8167C88.4351 62.8112 88.5048 62.9861 88.5048 63.3455C88.5048 63.6953 88.4201 63.8429 88.0306 63.836C86.6519 63.8142 85.2718 63.836 83.8931 63.8196C83.5788 63.8156 83.4982 63.9112 83.4996 64.2145C83.5119 66.2382 83.516 68.2633 83.4968 70.287C83.4927 70.6614 83.6348 70.7174 83.9614 70.7133C85.3087 70.6983 86.6574 70.7201 88.006 70.6996C88.4091 70.6928 88.5048 70.8431 88.5089 71.2175C88.5116 71.6069 88.3845 71.7258 87.9951 71.7217C86.2871 71.7039 84.5777 71.7039 82.8696 71.7217C82.4706 71.7258 82.3613 71.5851 82.3668 71.2066C82.3859 69.8825 82.3736 68.5584 82.3736 67.2344L82.3723 67.2357Z" fill="white"/>
<path d="M74.8701 64.4575C76.2748 66.1191 77.6795 67.782 79.1703 69.5461V68.9681C79.1703 67.0975 79.1839 65.2268 79.1607 63.3575C79.1553 62.9025 79.3261 62.8123 79.7401 62.8137C80.1582 62.8151 80.3604 62.8834 80.3563 63.3698C80.3358 66.0508 80.3468 68.7317 80.344 71.4126C80.344 71.5752 80.4219 71.7993 80.2293 71.8772C80.0134 71.9647 79.848 71.798 79.7141 71.6381C78.1195 69.7347 76.5194 67.834 74.9344 65.9223C74.5763 65.4905 74.8551 64.9686 74.7608 64.4944C74.7977 64.4821 74.8346 64.4698 74.8729 64.4575H74.8701Z" fill="white"/>
<path d="M23.9752 67.1555C23.9752 68.526 23.9752 69.8952 23.9752 71.2657C23.9752 71.8355 23.9574 71.826 23.3507 71.856C22.9189 71.8779 22.7358 71.7699 22.7522 71.2944C22.7877 70.2368 22.7426 69.1765 22.7741 68.1189C22.785 67.7308 22.6497 67.6652 22.3013 67.6707C21.0797 67.6898 19.8567 67.6529 18.6352 67.6912C18.1719 67.7062 18.217 67.4657 18.228 67.1787C18.2389 66.9 18.1268 66.6035 18.6393 66.6199C19.8759 66.6595 21.1152 66.6212 22.3518 66.6404C22.6798 66.6458 22.7782 66.5598 22.7713 66.2277C22.7508 65.1387 22.7809 64.0483 22.7549 62.9592C22.744 62.5384 22.9285 62.4523 23.2892 62.4755C23.624 62.496 23.9929 62.3867 23.9834 62.9537C23.9601 64.3543 23.9752 65.7563 23.9752 67.1569V67.1555Z" fill="white"/>
<path d="M12.5075 65.1723C11.9691 65.5781 11.4239 65.9744 10.9689 66.4758C10.1846 67.1167 9.362 67.7179 8.62549 68.408C7.92588 69.0639 7.10466 69.2893 6.19735 69.344C5.9063 69.3617 5.61388 69.3467 5.18073 69.3467C6.98441 67.8614 8.68425 66.4622 10.3855 65.0616C10.917 64.7159 11.4075 64.321 11.8544 63.8701C12.1495 63.6432 12.4624 63.4355 12.733 63.1814C12.9817 62.9491 13.0623 63.0461 13.1853 63.2948C13.6157 64.1652 13.6089 64.2322 12.8573 64.8607C12.7384 64.9605 12.625 65.067 12.5089 65.1709L12.5075 65.1723Z" fill="#95C840"/>
<path d="M9.77626 64.4208C8.36884 65.5618 6.96142 66.7028 5.554 67.8424C5.42009 67.9503 5.28344 68.0555 5.14953 68.1635C4.5934 68.6117 4.5565 68.6007 4.31738 67.9079C4.09192 67.2534 4.21216 66.8189 4.76967 66.3857C6.4613 65.0726 8.16661 63.7745 9.84868 62.4491C10.1698 62.1963 10.3775 62.1976 10.5879 62.5351C10.1643 63.0995 9.89787 63.7294 9.77489 64.4208H9.77626Z" fill="#0279B3"/>
<path d="M16.4926 67.113C16.4926 65.7288 16.5144 64.3432 16.4816 62.959C16.4693 62.4384 16.7604 62.4753 17.1075 62.4698C17.4504 62.4657 17.6964 62.4644 17.6923 62.9454C17.6718 65.7616 17.6718 68.5778 17.6923 71.3926C17.695 71.8435 17.4764 71.8722 17.143 71.8504C16.8328 71.8312 16.4734 71.9611 16.483 71.4049C16.509 69.9743 16.4912 68.5422 16.4912 67.1116L16.4926 67.113Z" fill="white"/>
<path d="M109.556 69.8128C109.556 69.2991 109.569 68.7853 109.549 68.2729C109.542 68.0966 109.613 67.975 109.696 67.8465C110.698 66.2875 111.701 64.7297 112.705 63.172C112.902 62.8659 113.527 62.6937 113.864 62.8427C114.049 62.9247 114.013 63.0613 113.945 63.1911C113.865 63.3414 113.768 63.4849 113.676 63.6284C112.75 65.07 111.829 66.5143 110.898 67.9504C110.755 68.169 110.693 68.3863 110.695 68.6459C110.708 69.5327 110.68 70.4209 110.708 71.3063C110.723 71.7682 110.451 71.7545 110.135 71.7545C109.817 71.7545 109.535 71.7614 109.561 71.3036C109.59 70.8076 109.568 70.3075 109.568 69.8101H109.558L109.556 69.8128Z" fill="white"/>
<path d="M72.956 67.1762C72.956 65.8221 72.9533 64.4693 72.9588 63.1152C72.9588 62.9581 72.8822 62.749 73.1118 62.6766C73.3072 62.6151 73.4179 62.7545 73.5477 62.8775C73.9891 63.2983 74.1598 63.7766 74.1476 64.4079C74.1052 66.6625 74.1202 68.9198 74.1394 71.1758C74.1435 71.6226 74.0054 71.7743 73.5504 71.7688C73.12 71.7633 72.9342 71.665 72.9451 71.1908C72.9752 69.8531 72.956 68.5153 72.956 67.1762Z" fill="white"/>
<path d="M109.112 67.5535C108.829 67.1135 108.58 66.7241 108.33 66.3346C107.698 65.3522 107.064 64.3711 106.434 63.3859C106.345 63.2465 106.193 63.1044 106.297 62.9254C106.391 62.7628 106.583 62.8502 106.73 62.8256C107.173 62.7532 107.442 62.9322 107.676 63.3189C108.263 64.2918 108.886 65.2456 109.527 66.1857C109.73 66.4822 109.735 66.6954 109.51 66.9577C109.372 67.119 109.272 67.313 109.113 67.5535H109.112Z" fill="white"/>
<path d="M49.0817 66.5908C49.6925 66.5908 50.3033 66.6017 50.9141 66.5867C51.2393 66.5785 51.3254 66.7329 51.2926 67.0171C51.2626 67.285 51.4224 67.6607 50.9291 67.6621C49.6611 67.6662 48.3917 67.6621 47.1236 67.6662C46.9433 67.6662 46.8681 67.5924 46.8763 67.4161C46.8831 67.2604 46.8927 67.1032 46.8736 66.9502C46.8381 66.6537 46.9706 66.5785 47.2493 66.5853C47.8601 66.6017 48.4709 66.5908 49.0817 66.5908Z" fill="white"/>
<path d="M69.0301 66.7406C69.5931 66.7406 70.1547 66.7529 70.7176 66.7365C71.0784 66.7256 71.1276 66.9237 71.1207 67.2093C71.1153 67.4826 71.1453 67.7449 70.7313 67.7395C69.5917 67.7272 68.4507 67.7299 67.3098 67.7395C67.0707 67.7408 66.9887 67.6725 66.9818 67.4252C66.9627 66.7392 66.9504 66.7406 67.6241 66.7406C68.0927 66.7406 68.5614 66.7406 69.0301 66.7406Z" fill="white"/>
<path d="M86.144 66.7397C86.6919 66.7397 87.2426 66.7629 87.7892 66.7315C88.2018 66.7083 88.2455 66.9337 88.2578 67.2466C88.2715 67.5964 88.1513 67.7481 87.77 67.7413C86.6728 67.7208 85.5755 67.729 84.4797 67.7386C84.2296 67.7413 84.1203 67.6921 84.1176 67.4092C84.1107 66.7397 84.0943 66.7397 84.7803 66.7397C85.2353 66.7397 85.689 66.7397 86.144 66.7397Z" fill="white"/>
<path d="M103.953 68.037C103.435 68.037 102.918 68.022 102.402 68.0411C101.965 68.0575 102.038 67.7651 102.034 67.5055C102.03 67.25 101.993 67.0068 102.395 67.0136C103.398 67.0314 104.401 67.0286 105.404 67.015C105.915 67.0081 105.756 67.3702 105.791 67.6367C105.827 67.9277 105.74 68.0603 105.412 68.0425C104.928 68.0165 104.44 68.0357 103.955 68.0357L103.953 68.037Z" fill="white"/>
<path d="M9.77725 64.4206C9.90023 63.7291 10.1667 63.0979 10.5903 62.5349C11.0917 62.9052 11.4812 63.3793 11.8529 63.8713C11.4074 64.3222 10.9155 64.7171 10.3839 65.0628C10.2022 64.8305 10.1325 64.4902 9.77588 64.4219L9.77725 64.4206Z" fill="#04578E"/>
<g clip-path="url(#clip0_94_11)">
<path d="M3.52029 40.124L3.22693 42.0848H6.94279L6.64943 44.2416H3.03136L2.54243 47.3788H0L1.369 37.7711H8.31179L8.01843 40.124H3.52029Z" fill="white"/>
<path d="M13.69 37.6729C15.2546 37.6729 16.428 38.1631 17.1125 39.0454C17.8948 39.9278 18.0904 41.2023 17.8948 42.7709C17.6992 44.3395 17.1125 45.5159 16.1347 46.3002C15.1568 47.0845 13.9834 47.5747 12.5166 47.5747C10.952 47.5747 9.7786 47.0845 9.0941 46.2022C8.31181 45.3199 8.11624 44.0454 8.31181 42.4768C8.50738 40.9081 9.0941 39.7317 10.072 38.9474C10.952 38.065 12.2232 37.6729 13.69 37.6729ZM12.7122 45.2218C13.4945 45.2218 14.0812 45.0257 14.4723 44.5356C14.9612 44.0454 15.2546 43.3591 15.3524 42.4768C15.548 40.8101 14.8635 39.9278 13.4945 39.9278C12.7122 39.9278 12.1255 40.1238 11.7343 40.614C11.2454 41.1042 10.952 41.7905 10.8542 42.6728C10.6587 44.4375 11.2454 45.2218 12.7122 45.2218ZM14.4723 34.3396L16.1347 35.32V35.8102C15.2546 36.3984 14.179 36.8886 13.0055 37.2807L12.4188 36.5945L14.4723 34.3396Z" fill="white"/>
<path d="M27.3801 41.3985C27.1845 42.8691 26.5 43.9475 25.3266 44.4377L26.9889 47.1827V47.3788H24.2509L22.8819 44.8298H21.3174L20.9262 47.3788H18.3838L19.7528 37.7711H23.6642C25.0332 37.7711 26.0111 38.0652 26.6956 38.7515C27.2823 39.4377 27.5756 40.3201 27.3801 41.3985ZM21.6107 42.771H23.2731C23.762 42.771 24.1531 42.673 24.4465 42.3789C24.7399 42.0848 24.9354 41.7906 24.9354 41.3005C24.9354 40.9083 24.8376 40.6142 24.6421 40.4181C24.3487 40.222 24.0554 40.026 23.4686 40.026H22.0019L21.6107 42.771Z" fill="white"/>
<path d="M39.3099 47.3788H36.7675L37.3542 42.2808L37.452 41.8887L34.4206 47.3788H32.856L31.3892 41.8887V42.2808L30.5092 47.3788H27.9667L29.7269 37.7711H32.5627L34.0295 43.0651C34.1272 43.2612 34.1272 43.4573 34.1272 43.7514C34.225 43.4573 34.3228 43.1632 34.5184 42.9671L37.452 37.8691H40.2877L39.3099 47.3788Z" fill="white"/>
<path d="M50.8487 37.869L50.1642 42.967C49.9686 44.5356 49.4797 45.712 48.5996 46.4963C47.7195 47.2806 46.6439 47.5748 45.1771 47.5748C42.2435 47.5748 40.9723 46.0061 41.3635 42.7709L42.048 37.869H44.5904L43.9059 42.967C43.8081 43.7513 43.9059 44.3395 44.1015 44.7316C44.297 45.1238 44.6882 45.3199 45.2749 45.3199C46.5461 45.3199 47.3284 44.5356 47.524 42.8689L48.2085 37.967H50.8487V37.869Z" fill="white"/>
<path d="M58.1824 45.1239L57.8891 47.3788H51.0441L52.4131 37.7711H54.9555L53.9776 45.0259H58.1824V45.1239Z" fill="white"/>
<path d="M66.0055 45.9082H61.8985L61.1162 47.3788H58.3782L63.2675 37.7711H66.7878L69.0369 47.3788H66.2989L66.0055 45.9082ZM65.5166 43.5553L64.9299 40.7122C64.8321 40.3201 64.8321 40.026 64.7343 39.8299C64.6365 40.124 64.5387 40.4181 64.3432 40.8103L63.072 43.4573H65.5166V43.5553Z" fill="white"/>
<path d="M83.1179 37.869L82.4334 42.967C82.2378 44.5356 81.7489 45.712 80.8688 46.4963C79.9888 47.2806 78.9131 47.5748 77.4463 47.5748C74.5128 47.5748 73.2415 46.0061 73.6327 42.7709L74.3172 37.869H76.8596L76.2729 42.8689C76.1751 43.6532 76.2729 44.2415 76.4685 44.6336C76.664 45.0258 77.0552 45.2218 77.6419 45.2218C78.9131 45.2218 79.6954 44.4375 79.891 42.7709L80.5755 37.869H83.1179Z" fill="white"/>
<path d="M86.9315 40.124L86.6382 42.0848H90.354L90.0607 44.2416H86.3448L85.9537 47.3788H83.4113L84.7802 37.7711H91.723L91.4297 40.124H86.9315Z" fill="white"/>
<path d="M102.773 47.3788H100.23L100.817 42.2808L100.915 41.8887L97.8836 47.3788H96.319L94.8522 41.8887V42.2808L93.9722 47.3788H91.4297L93.1899 37.7711H96.0257L97.4925 43.0651C97.5902 43.2612 97.5903 43.4573 97.5903 43.7514C97.688 43.4573 97.7858 43.1632 97.9814 42.9671L100.915 37.8691H103.751L102.773 47.3788Z" fill="white"/>
<path d="M109.911 37.6727C111.378 37.6727 112.747 37.9668 113.92 38.5551L113.138 40.4178C111.965 40.0256 110.889 39.9276 110.009 39.9276C109.227 39.9276 108.64 40.2217 108.053 40.7119C107.466 41.2021 107.173 41.8884 107.075 42.7707C106.978 43.457 107.075 44.1432 107.369 44.5354C107.662 45.0256 108.151 45.2217 108.835 45.2217C109.813 45.2217 110.693 45.1236 111.28 44.9275L111.378 44.0452H108.933L109.227 42.0844H113.92L113.431 46.3981C111.769 47.1824 110.204 47.5746 108.738 47.5746C107.271 47.5746 106.195 47.0844 105.413 46.202C104.631 45.3197 104.435 44.0452 104.631 42.4766C104.826 41.006 105.413 39.8296 106.391 38.9472C107.369 38.1629 108.542 37.6727 109.911 37.6727Z" fill="white"/>
<path d="M80.5724 20.0252C79.5033 19.7324 78.4342 19.7324 77.365 19.9276C70.5616 21.1963 44.2225 26.271 40.1405 26.9542C39.8489 27.0518 39.5573 26.759 39.6545 26.3686L43.8338 8.8021C43.931 8.41173 43.5422 8.02137 43.1534 8.21655L1.16644 28.8084L1.26363 28.3205C1.36083 27.9301 1.6524 27.5397 1.94398 27.3445L49.1793 0.409204C49.6653 0.116429 50.1513 0.604388 50.0541 1.09235L45.2917 21.0987C45.1945 21.489 45.5832 21.8794 45.972 21.7818L75.81 16.4143C78.2398 16.0239 80.7668 16.1215 83.0994 16.8046C89.3197 18.6589 107.009 25.0023 113.035 27.1494C113.618 27.3445 114.395 27.7349 114.59 28.3205L80.5724 20.0252Z" fill="white"/>
<path d="M62.7862 14.9501L64.2441 12.3152C64.3413 12.12 64.0497 11.4368 63.7581 11.4368L57.8294 12.0224C57.635 12.0224 56.3715 9.87537 57.2462 8.50909C57.4406 8.02113 58.0238 7.63076 58.6069 7.72835L64.3413 8.4115C64.5356 8.4115 64.6328 8.3139 64.5356 8.11872C64.2441 7.1428 63.0778 4.11746 60.162 3.43431C55.3996 2.26321 51.5119 5.28856 51.9007 10.2657C51.9979 11.1441 52.2894 12.12 52.7754 12.9007C53.067 13.2911 53.2614 13.779 53.4557 14.0718C53.6501 14.3646 54.0389 14.5598 54.4277 14.6574L61.8143 15.4381C62.203 15.4381 62.5918 15.2429 62.7862 14.9501Z" fill="white"/>
</g>
<defs>
<clipPath id="clip0_94_11">
<rect width="114" height="73.1816" fill="white" transform="translate(0 0.580566)"/>
</clipPath>
</defs>
</svg>
