<svg width="37" height="37" viewBox="0 0 37 37" fill="none" xmlns="http://www.w3.org/2000/svg">
<g clip-path="url(#clip0_6_330)">
<path d="M28.5226 1.92969H7.50595C5.51598 1.93207 3.6082 2.72364 2.20108 4.13076C0.793953 5.53789 0.00238368 7.44567 0 9.43564L0 27.4499C0.00238368 29.4399 0.793953 31.3477 2.20108 32.7548C3.6082 34.1619 5.51598 34.9535 7.50595 34.9559H28.5226C30.5126 34.9535 32.4204 34.1619 33.8275 32.7548C35.2346 31.3477 36.0262 29.4399 36.0286 27.4499V9.43564C36.0262 7.44567 35.2346 5.53789 33.8275 4.13076C32.4204 2.72364 30.5126 1.93207 28.5226 1.92969ZM7.50595 4.93207H28.5226C29.4215 4.93384 30.2993 5.20456 31.043 5.70939C31.7868 6.21422 32.3624 6.93007 32.6959 7.76482L21.1998 19.2624C20.3538 20.1051 19.2084 20.5782 18.0143 20.5782C16.8202 20.5782 15.6748 20.1051 14.8288 19.2624L3.33264 7.76482C3.66613 6.93007 4.24178 6.21422 4.98552 5.70939C5.72927 5.20456 6.60706 4.93384 7.50595 4.93207ZM28.5226 31.9535H7.50595C6.31153 31.9535 5.16603 31.479 4.32145 30.6344C3.47686 29.7899 3.00238 28.6443 3.00238 27.4499V11.6874L12.7061 21.3851C14.1151 22.7906 16.0241 23.5799 18.0143 23.5799C20.0045 23.5799 21.9134 22.7906 23.3225 21.3851L33.0262 11.6874V27.4499C33.0262 28.6443 32.5517 29.7899 31.7071 30.6344C30.8625 31.479 29.717 31.9535 28.5226 31.9535Z" fill="white"/>
</g>
<defs>
<clipPath id="clip0_6_330">
<rect width="36.0286" height="36.0286" fill="white" transform="translate(0 0.428711)"/>
</clipPath>
</defs>
</svg>
