<svg width="106" height="44" viewBox="0 0 106 44" fill="none" xmlns="http://www.w3.org/2000/svg">
<g clip-path="url(#clip0_6_283)">
<path d="M3.24314 36.8643L2.97189 38.6587H6.4077L6.13646 40.6326H2.79106L2.33898 43.5038H-0.0118408L1.25399 34.7109H7.67353L7.40228 36.8643H3.24314Z" fill="white"/>
<path d="M12.6475 34.6228C14.0941 34.6228 15.1791 35.0715 15.812 35.879C16.5354 36.6865 16.7162 37.8529 16.5354 39.2884C16.3545 40.724 15.812 41.8007 14.9079 42.5184C14.0037 43.2362 12.9187 43.6848 11.5625 43.6848C10.1158 43.6848 9.03084 43.2362 8.39793 42.4287C7.6746 41.6212 7.49377 40.4548 7.6746 39.0193C7.85543 37.5837 8.39793 36.507 9.30209 35.7892C10.1158 34.9817 11.2912 34.6228 12.6475 34.6228ZM11.7433 41.5315C12.4667 41.5315 13.0091 41.352 13.3708 40.9034C13.8229 40.4548 14.0941 39.8268 14.1846 39.0193C14.3654 37.494 13.7325 36.6865 12.4667 36.6865C11.7433 36.6865 11.2008 36.8659 10.8392 37.3145C10.3871 37.7631 10.1158 38.3912 10.0254 39.1987C9.84458 40.8137 10.3871 41.5315 11.7433 41.5315ZM13.3708 31.5723L14.9079 32.4695V32.9181C14.0941 33.4564 13.0996 33.9051 12.0146 34.2639L11.4721 33.6359L13.3708 31.5723Z" fill="white"/>
<path d="M25.3093 38.0307C25.1284 39.3765 24.4955 40.3635 23.4105 40.8121L24.9476 43.3243V43.5038H22.4159L21.1501 41.171H19.7035L19.3418 43.5038H16.991L18.2568 34.7109H21.8734C23.1393 34.7109 24.0434 34.9801 24.6763 35.6082C25.2188 36.2362 25.4901 37.0437 25.3093 38.0307ZM19.9747 39.2868H21.5118C21.9639 39.2868 22.3255 39.1971 22.5968 38.9279C22.868 38.6587 23.0488 38.3896 23.0488 37.941C23.0488 37.5821 22.9584 37.3129 22.7776 37.1335C22.5064 36.954 22.2351 36.7746 21.6926 36.7746H20.3364L19.9747 39.2868Z" fill="white"/>
<path d="M36.3365 43.5038H33.9857L34.5282 38.8382L34.6186 38.4793L31.8157 43.5038H30.3691L29.0128 38.4793V38.8382L28.1991 43.5038H25.8483L27.4758 34.7109H30.0978L31.4541 39.556C31.5445 39.7354 31.5445 39.9149 31.5445 40.184C31.6349 39.9149 31.7253 39.6457 31.9061 39.4662L34.6186 34.8007H37.2407L36.3365 43.5038Z" fill="white"/>
<path d="M46.998 34.8018L46.3651 39.4673C46.1842 40.9029 45.7322 41.9796 44.9184 42.6974C44.1047 43.4151 43.1101 43.6843 41.7538 43.6843C39.0414 43.6843 37.8659 42.2487 38.2276 39.2879L38.8605 34.8018H41.2113L40.5784 39.4673C40.488 40.1851 40.5784 40.7235 40.7593 41.0823C40.9401 41.4412 41.3018 41.6207 41.8443 41.6207C43.0197 41.6207 43.743 40.9029 43.9238 39.3776L44.5567 34.8915H46.998V34.8018Z" fill="white"/>
<path d="M53.7845 41.4401L53.5132 43.5038H47.1841L48.4499 34.7109H50.8007L49.8966 41.3504H53.7845V41.4401Z" fill="white"/>
<path d="M61.0163 42.1579H57.2188L56.4955 43.5038H53.9639L58.4847 34.7109H61.7397L63.8192 43.5038H61.2876L61.0163 42.1579ZM60.5642 40.0046L60.0217 37.4026C59.9313 37.0437 59.9313 36.7746 59.8409 36.5951C59.7505 36.8643 59.6601 37.1335 59.4793 37.4923L58.3038 39.9149H60.5642V40.0046Z" fill="white"/>
<path d="M76.8468 34.8018L76.2139 39.4673C76.0331 40.9029 75.581 41.9796 74.7672 42.6974C73.9535 43.4151 72.9589 43.6843 71.6027 43.6843C68.8902 43.6843 67.7148 42.2487 68.0765 39.2879L68.7094 34.8018H71.0602L70.5177 39.3776C70.4273 40.0954 70.5177 40.6337 70.6985 40.9926C70.8794 41.3515 71.241 41.531 71.7835 41.531C72.9589 41.531 73.6823 40.8132 73.8631 39.2879L74.496 34.8018H76.8468Z" fill="white"/>
<path d="M80.3745 36.8643L80.1032 38.6587H83.5391L83.2678 40.6326H79.832L79.4703 43.5038H77.1195L78.3853 34.7109H84.8049L84.5336 36.8643H80.3745Z" fill="white"/>
<path d="M95.0126 43.5038H92.6617L93.2042 38.8382L93.2947 38.4793L90.4918 43.5038H89.0451L87.6889 38.4793V38.8382L86.8751 43.5038H84.5243L86.1518 34.7109H88.7738L90.1301 39.556C90.2205 39.7354 90.2205 39.9149 90.2205 40.184C90.3109 39.9149 90.4013 39.6457 90.5822 39.4662L93.2947 34.8007H95.9167L95.0126 43.5038Z" fill="white"/>
<path d="M101.617 34.6211C102.974 34.6211 104.24 34.8903 105.325 35.4286L104.601 37.1333C103.516 36.7744 102.522 36.6847 101.708 36.6847C100.985 36.6847 100.442 36.9539 99.8996 37.4025C99.3571 37.8511 99.0858 38.4792 98.9954 39.2867C98.905 39.9147 98.9954 40.5428 99.2667 40.9017C99.5379 41.3503 99.99 41.5297 100.623 41.5297C101.527 41.5297 102.341 41.44 102.883 41.2606L102.974 40.4531H100.713L100.985 38.6586H105.325L104.872 42.6064C103.335 43.3242 101.889 43.6831 100.532 43.6831C99.1763 43.6831 98.1817 43.2345 97.4584 42.427C96.735 41.6195 96.5542 40.4531 96.735 39.0175C96.9159 37.6717 97.4584 36.595 98.3625 35.7875C99.2667 35.0697 100.352 34.6211 101.617 34.6211Z" fill="white"/>
<path d="M74.1926 18.3941C73.2082 18.1273 72.2238 18.1273 71.2394 18.3052C64.9751 19.4614 40.7229 24.0863 36.9643 24.7089C36.6959 24.7978 36.4274 24.531 36.5169 24.1752L40.365 8.16596C40.4545 7.81019 40.0965 7.45443 39.7386 7.63231L1.07837 26.3988L1.16786 25.954C1.25735 25.5983 1.52582 25.2425 1.7943 25.0646L45.287 0.517076C45.7345 0.250255 46.1819 0.694957 46.0924 1.13966L41.7074 19.3725C41.6179 19.7282 41.9758 20.084 42.3338 19.995L69.8076 15.1033C72.0449 14.7475 74.3716 14.8365 76.5194 15.4591C82.2469 17.1489 98.5342 22.9301 104.083 24.8868C104.62 25.0646 105.336 25.4204 105.515 25.954L74.1926 18.3941Z" fill="white"/>
<path d="M57.8156 13.7692L59.158 11.3678C59.2475 11.1899 58.979 10.5673 58.7105 10.5673L53.2516 11.101C53.0726 11.101 51.9092 9.14427 52.7146 7.89911C52.8936 7.4544 53.4305 7.09864 53.9675 7.18758L59.2475 7.81017C59.4264 7.81017 59.5159 7.72123 59.4264 7.54334C59.158 6.65394 58.0841 3.89678 55.3993 3.2742C51.0143 2.20692 47.4346 4.96407 47.7926 9.50004C47.8821 10.3005 48.1506 11.1899 48.598 11.9014C48.8665 12.2572 49.0455 12.7019 49.2244 12.9687C49.4034 13.2355 49.7614 13.4134 50.1194 13.5024L56.9207 14.2139C57.2787 14.2139 57.6366 14.036 57.8156 13.7692Z" fill="white"/>
</g>
<defs>
<clipPath id="clip0_6_283">
<rect width="105.313" height="43.2536" fill="white" transform="translate(0 0.463867)"/>
</clipPath>
</defs>
</svg>
