<svg width="37" height="37" viewBox="0 0 37 37" fill="none" xmlns="http://www.w3.org/2000/svg">
<path d="M19.4885 1.50606C19.4885 1.10727 19.647 0.724804 19.929 0.442813C20.2109 0.160822 20.5934 0.0024013 20.9922 0.0024013C24.9787 0.00677935 28.8008 1.59239 31.6197 4.41136C34.4386 7.23032 36.0242 11.0524 36.0286 15.039C36.0286 15.4378 35.8702 15.8203 35.5882 16.1023C35.3062 16.3842 34.9237 16.5427 34.5249 16.5427C34.1261 16.5427 33.7437 16.3842 33.4617 16.1023C33.1797 15.8203 33.0213 15.4378 33.0213 15.039C33.0177 11.8497 31.7492 8.79213 29.4941 6.53697C27.239 4.28182 24.1814 3.0133 20.9922 3.00972C20.5934 3.00972 20.2109 2.8513 19.929 2.56931C19.647 2.28732 19.4885 1.90486 19.4885 1.50606ZM20.9922 9.02436C22.5873 9.02436 24.1172 9.65805 25.2451 10.786C26.3731 11.914 27.0067 13.4438 27.0067 15.039C27.0067 15.4378 27.1652 15.8203 27.4471 16.1023C27.7291 16.3842 28.1116 16.5427 28.5104 16.5427C28.9092 16.5427 29.2916 16.3842 29.5736 16.1023C29.8556 15.8203 30.014 15.4378 30.014 15.039C30.0116 12.647 29.0603 10.3536 27.3689 8.66215C25.6775 6.97072 23.3842 6.01943 20.9922 6.01704C20.5934 6.01704 20.2109 6.17546 19.929 6.45746C19.647 6.73945 19.4885 7.12191 19.4885 7.5207C19.4885 7.9195 19.647 8.30196 19.929 8.58395C20.2109 8.86594 20.5934 9.02436 20.9922 9.02436ZM34.6648 25.1722C35.5361 26.046 36.0255 27.2297 36.0255 28.4637C36.0255 29.6977 35.5361 30.8814 34.6648 31.7552L33.2965 33.3325C20.9817 45.1227 -8.98586 15.1623 2.62223 2.80823L4.35142 1.30457C5.22619 0.457525 6.39927 -0.0110578 7.61687 0.000198197C8.83448 0.0114542 9.9987 0.501644 10.8577 1.36472C10.9043 1.41133 13.6905 5.03064 13.6905 5.03064C14.5173 5.8992 14.9775 7.05296 14.9755 8.25209C14.9736 9.45122 14.5096 10.6035 13.68 11.4693L11.9388 13.6586C12.9024 16 14.3191 18.1279 16.1076 19.92C17.8961 21.7122 20.0211 23.1332 22.3605 24.1016L24.5633 22.3498C25.4293 21.5209 26.5813 21.0574 27.7801 21.0557C28.9788 21.054 30.1321 21.5143 31.0004 22.3408C31.0004 22.3408 34.6182 25.1256 34.6648 25.1722ZM32.5958 27.3585C32.5958 27.3585 28.9976 24.5903 28.9509 24.5436C28.6412 24.2365 28.2226 24.0642 27.7864 24.0642C27.3501 24.0642 26.9316 24.2365 26.6218 24.5436C26.5812 24.5857 23.5484 27.0021 23.5484 27.0021C23.344 27.1648 23.1008 27.2714 22.8426 27.3115C22.5845 27.3516 22.3204 27.3237 22.0763 27.2307C19.0457 26.1023 16.2929 24.3357 14.0045 22.0507C11.7161 19.7656 9.94555 17.0155 8.81271 13.9864C8.71227 13.739 8.67952 13.4693 8.71784 13.205C8.75616 12.9408 8.86416 12.6915 9.03074 12.4828C9.03074 12.4828 11.4471 9.4484 11.4877 9.4093C11.7948 9.09953 11.9672 8.68095 11.9672 8.24472C11.9672 7.80848 11.7948 7.38991 11.4877 7.08013C11.4411 7.03502 8.67287 3.43375 8.67287 3.43375C8.35846 3.15183 7.94812 3.00084 7.52597 3.01175C7.10381 3.02265 6.70182 3.19462 6.40238 3.4924L4.67319 4.99606C-3.81034 15.1969 22.159 39.7261 31.0981 31.2785L32.468 29.6997C32.789 29.4024 32.9818 28.9919 33.0056 28.555C33.0295 28.1181 32.8825 27.689 32.5958 27.3585Z" fill="white"/>
</svg>
