<svg width="114" height="21" viewBox="0 0 114 21" fill="none" xmlns="http://www.w3.org/2000/svg">
<path d="M37.1455 11.4026C35.5563 11.4026 33.9706 11.4168 32.3814 11.392C31.9815 11.3849 31.8541 11.4699 31.8859 11.8946C32.162 15.5614 36.2465 17.7346 39.4461 15.9083C40.2318 15.4588 40.7203 14.7509 41.1556 13.9935C41.237 13.8519 41.2405 13.6289 41.4494 13.6077C41.6582 13.5864 41.9484 13.5333 42.0688 13.6395C42.2599 13.8094 42.0015 14.0041 41.9201 14.1881C41.3715 15.4305 40.5468 16.4073 39.2514 16.9241C36.7384 17.9257 33.822 17.278 32.1726 14.9668C30.1445 12.1211 30.9232 8.03311 33.9211 6.22802C35.4253 5.32193 37.0676 5.16266 38.7524 5.85992C41.0565 6.81202 42.0652 8.65959 42.4298 10.985C42.4935 11.4026 42.2776 11.4132 41.9661 11.4097C40.3592 11.4026 38.7523 11.4062 37.1455 11.4062V11.4026ZM36.7597 10.5779C38.2108 10.5779 39.662 10.5779 41.1131 10.5779C41.3149 10.5779 41.5272 10.6452 41.4635 10.2629C41.2052 8.63127 39.5983 6.8368 37.9843 6.42977C35.0714 5.69003 32.7318 7.54468 32.0487 10.1072C31.939 10.5107 32.0841 10.5921 32.4664 10.5886C33.8963 10.5709 35.3298 10.5815 36.7597 10.5815V10.5779Z" fill="white"/>
<path d="M74.807 11.4061C73.239 11.4061 71.6711 11.4238 70.1031 11.3955C69.6041 11.3849 69.558 11.5512 69.6005 11.9972C69.8801 14.9207 72.6975 17.3027 76.205 16.3152C77.3235 16.0002 78.1199 15.2747 78.672 14.2695C78.764 14.0996 78.849 13.9261 78.9552 13.7633C79.1604 13.4483 79.5002 13.5191 79.7338 13.6253C79.978 13.735 79.7338 13.9545 79.6666 14.1102C78.9481 15.8091 77.7128 16.9169 75.883 17.2709C72.9453 17.8407 70.1881 16.34 69.1298 13.6395C68.0715 10.946 69.1687 7.61539 71.6888 6.1784C73.1718 5.33248 74.768 5.16259 76.428 5.83862C78.672 6.75532 79.6914 8.5321 80.1161 10.7796C80.2152 11.2999 80.0347 11.4344 79.5144 11.4238C77.9464 11.3884 76.3785 11.4132 74.8105 11.4132L74.807 11.4061ZM74.4318 10.5708C75.8617 10.5708 77.2916 10.5708 78.7216 10.5708C78.7393 10.5708 78.7605 10.5708 78.7782 10.5708C79.033 10.5814 79.2525 10.5779 79.1569 10.2027C78.7251 8.53564 77.5323 6.91459 75.6706 6.44031C72.701 5.67934 70.4535 7.56938 69.7386 10.1354C69.6218 10.5566 69.82 10.5779 70.1385 10.5743C71.5684 10.5672 72.9983 10.5708 74.4283 10.5708H74.4318Z" fill="#E85F3A"/>
<path d="M108.779 17.3727C107.193 17.3727 105.76 17.0931 104.603 15.9853C104.114 15.5181 103.771 14.973 103.619 14.3217C103.58 14.1625 103.297 13.897 103.672 13.8156C103.923 13.7625 104.238 13.6634 104.373 14.0881C104.684 15.0615 105.342 15.7446 106.28 16.141C107.838 16.8029 110.574 16.8029 111.823 15.5145C112.91 14.3961 112.584 12.6972 111.147 12.0813C110.085 11.6247 108.953 11.4654 107.823 11.2991C106.921 11.1646 106.043 10.977 105.229 10.531C103.665 9.67451 103.863 7.8411 104.631 6.89254C105.452 5.88027 106.599 5.54403 107.813 5.46263C109.59 5.34229 111.257 5.61835 112.425 7.18277C112.648 7.48008 112.782 7.81986 112.906 8.16318C112.959 8.3083 113.175 8.56314 112.853 8.62684C112.623 8.67286 112.272 8.8109 112.141 8.46404C111.742 7.41637 111.03 6.69433 109.947 6.41118C108.56 6.05016 107.183 6.06078 105.909 6.84653C105.211 7.27479 104.815 7.90127 104.907 8.72595C104.999 9.53647 105.569 9.90457 106.323 10.1276C107.519 10.478 108.761 10.5558 109.965 10.8496C110.683 11.023 111.366 11.246 112.003 11.6353C113.759 12.7113 113.692 15.1181 112.198 16.3215C111.182 17.1391 109.99 17.3904 108.776 17.3727H108.779Z" fill="#E85F3A"/>
<path d="M57.8966 7.51593C59.5848 5.30027 62.3208 4.92863 64.5188 6.0223C65.3718 6.44703 65.9133 7.16907 66.2495 8.0433C66.5291 8.76888 66.6707 9.51923 66.6636 10.305C66.6495 12.3684 66.6636 14.4355 66.653 16.4989C66.653 16.7715 66.8017 17.1254 66.2601 17.1325C65.6761 17.1396 65.839 16.7538 65.839 16.4671C65.8319 14.3647 65.846 12.2587 65.8283 10.1563C65.8177 9.1122 65.577 8.12471 64.8479 7.32481C63.8073 6.18158 61.5457 5.86303 60.1122 6.62754C58.5973 7.43453 57.8895 8.70163 57.893 10.3935C57.8966 12.4569 57.893 14.5239 57.8966 16.5874C57.8966 16.906 57.893 17.1325 57.4506 17.1325C56.9905 17.1325 57.0223 16.8741 57.0223 16.5697C57.0223 13.1365 57.0259 9.69974 57.0223 6.26652C57.0223 5.94798 57.0223 5.725 57.4683 5.725C57.9284 5.725 57.9001 5.97983 57.8966 6.28068C57.8895 6.6417 57.8966 7.00626 57.8966 7.51239V7.51593Z" fill="#E85F3A"/>
<path d="M100.341 15.3176C98.5961 17.689 95.7965 17.7456 94.1188 16.8679C92.4623 16.0007 91.62 14.5885 91.5669 12.7622C91.5032 10.5819 91.5562 8.40162 91.5456 6.21781C91.5456 5.89218 91.6023 5.72937 91.9845 5.72937C92.3703 5.72937 92.4234 5.89572 92.4234 6.21781C92.4128 8.32021 92.434 10.4262 92.4163 12.5286C92.4022 14.2558 93.1596 15.5512 94.7311 16.2025C96.3026 16.8537 97.8599 16.659 99.1553 15.4486C100.005 14.6557 100.348 13.6293 100.345 12.479C100.345 10.412 100.345 8.34853 100.345 6.28152C100.345 5.99483 100.277 5.71875 100.759 5.71875C101.244 5.71875 101.169 5.99483 101.169 6.28152C101.169 9.71828 101.169 13.155 101.169 16.5882C101.169 16.9068 101.173 17.1333 100.727 17.1262C100.291 17.1192 100.334 16.8714 100.337 16.5953C100.337 16.2166 100.337 15.8344 100.337 15.307L100.341 15.3176Z" fill="#E85F3A"/>
<path d="M49.8306 17.3592C46.7372 17.4477 44.2384 14.7259 44.1004 11.8944C43.9836 9.50528 44.8719 7.53029 46.9283 6.25257C48.4397 5.31463 50.0961 5.19075 51.8162 5.82076C53.2391 6.34105 54.1523 7.32147 54.7858 8.63104C54.8778 8.81863 55.1079 9.1124 54.8672 9.20089C54.6017 9.29999 54.1876 9.40263 53.9965 8.93543C53.7275 8.28772 53.3063 7.73911 52.7542 7.30377C50.5208 5.53053 47.3566 6.06852 45.7993 8.48239C44.2349 10.9033 44.7233 13.8269 46.985 15.6001C49.1405 17.2884 52.4463 16.6513 53.8266 14.2905C54.0107 13.9755 54.0673 13.5154 54.6513 13.5791C55.0017 13.6181 55.0336 13.7242 54.9061 13.9826C53.8939 16.039 52.3365 17.3096 49.9474 17.3557C49.8908 17.3557 49.8306 17.3557 49.8342 17.3557L49.8306 17.3592Z" fill="white"/>
<path d="M80.825 5.80901C81.5081 5.60373 81.9293 5.83733 82.2832 6.35762C83.0796 7.51854 83.9078 8.65469 84.7325 9.79792C85.274 10.5518 85.2882 10.5483 85.8191 9.81207C86.6402 8.66885 87.4791 7.53624 88.2719 6.37531C88.6294 5.85148 89.04 5.59665 89.7195 5.80193C89.1037 6.66201 88.4984 7.51854 87.8826 8.368C87.2738 9.21391 86.6792 10.0669 86.0385 10.8845C85.8156 11.1677 85.8722 11.3305 86.0527 11.5782C87.3163 13.3055 88.5692 15.0398 89.8222 16.7705C89.8753 16.8449 89.9177 16.9298 89.985 17.0466C89.4081 17.1953 89.0258 17.1457 88.6577 16.5971C87.6808 15.1424 86.6084 13.7479 85.589 12.325C85.359 12.0065 85.2316 11.964 84.9803 12.325C83.9255 13.8222 82.8283 15.2875 81.7771 16.7847C81.4515 17.2484 81.048 17.0785 80.5029 17.1209C81.0586 16.3316 81.5329 15.6379 82.0284 14.9619C82.8496 13.8435 83.6813 12.7285 84.5131 11.6207C84.7325 11.3269 84.6936 11.0933 84.4777 10.7996C83.2601 9.16082 82.0673 7.50439 80.8321 5.80901H80.825Z" fill="#E85F3A"/>
<path d="M26.328 10.3798C26.328 9.10914 26.3103 8.06502 26.3386 7.02443C26.3492 6.63864 26.2714 6.44397 25.8431 6.50768C25.6555 6.536 25.4538 6.49706 25.2626 6.51476C24.937 6.54661 24.7848 6.47937 24.7813 6.09003C24.7777 5.66176 25.0326 5.75025 25.2662 5.74671C25.9764 5.73727 26.3315 5.37389 26.3315 4.65657C26.3315 4.50084 26.3457 4.34511 26.3315 4.19291C26.2926 3.86729 26.4094 3.76465 26.7457 3.76465C27.0677 3.76465 27.2164 3.84605 27.1598 4.17876C27.1598 4.19645 27.1598 4.21769 27.1598 4.23539C27.1704 4.71675 26.9934 5.36092 27.2376 5.63699C27.5208 5.95553 28.1826 5.7184 28.6782 5.73963C29.064 5.75379 29.4533 5.75025 29.8391 5.73963C30.0975 5.73256 30.2709 5.74671 30.2638 6.09357C30.2603 6.42982 30.147 6.52184 29.8285 6.51476C29.0746 6.49706 28.3207 6.51122 27.5633 6.50768C27.3367 6.50768 27.1491 6.50768 27.1562 6.82976C27.2058 9.17993 27.0288 11.5372 27.2447 13.8838C27.3863 15.4305 28.2641 16.2127 29.8108 16.3295C30.1541 16.3543 30.2709 16.4357 30.2638 16.7967C30.2603 17.2285 29.9771 17.1294 29.7506 17.1294C27.949 17.1259 26.7492 16.018 26.42 14.0147C26.2112 12.7335 26.3882 11.4345 26.3315 10.3762L26.328 10.3798Z" fill="white"/>
<path d="M18.3695 0.762672C15.1486 2.65271 11.9525 4.58169 8.70336 6.41863C6.30718 7.77068 3.94287 9.17936 1.55377 10.542C1.43697 10.6093 1.30247 10.6376 1.18213 10.6907C0.759766 10.8818 0.548584 10.7343 0.548584 10.2483C0.548584 7.81669 0.548584 5.38513 0.548584 2.9571C0.548584 1.33252 1.24939 0.642334 2.88813 0.642334C7.86098 0.642334 12.8374 0.642334 17.8102 0.642334C17.9943 0.642334 18.1783 0.642334 18.3624 0.642334C18.3624 0.684807 18.3695 0.723742 18.3695 0.766215V0.762672Z" fill="white"/>
<path d="M20.3832 2.61389V3.11648C20.3832 8.15305 20.3549 13.1932 20.4044 18.2297C20.4186 19.5216 19.4771 20.5551 18.0967 20.5162C15.6014 20.4454 13.1026 20.4879 10.6038 20.502C10.1543 20.502 10.0517 20.4206 10.2923 20.0065C12.1611 16.7786 14.0264 13.5471 15.8811 10.3085C17.265 7.89113 18.6312 5.45957 20.008 3.03508C20.0929 2.88642 20.185 2.73777 20.277 2.58911C20.3124 2.59619 20.3513 2.60681 20.3867 2.61389H20.3832Z" fill="white"/>
<path d="M18.0611 2.98464C17.3532 3.97568 16.4648 4.80743 15.6401 5.69228C12.9608 8.56273 10.2602 11.4084 7.55967 14.2576C5.74042 16.176 3.91055 18.0873 2.08422 19.9985C1.67719 20.4268 1.23831 20.4516 0.866669 20.087C0.509189 19.7331 0.530428 19.2482 0.951616 18.8695C3.7796 16.314 6.51909 13.663 9.30814 11.0615C12.1538 8.407 15.0172 5.77723 17.8204 3.07667C17.8806 3.0165 17.9407 2.85722 18.0788 2.99172L18.0646 2.98464H18.0611Z" fill="white"/>
</svg>
