<svg width="21" height="24" viewBox="0 0 21 24" fill="none" xmlns="http://www.w3.org/2000/svg">
<path d="M20.6473 9.92919C18.6034 9.92919 16.7087 9.26427 15.1627 8.13468L15.1627 16.2858C15.1627 20.357 11.9073 23.668 7.90656 23.668C6.36055 23.668 4.92634 23.1722 3.7482 22.3304C1.87732 20.9937 0.650452 18.7831 0.650452 16.2858C0.650452 12.2146 3.90586 8.90265 7.90751 8.90265C8.24003 8.90265 8.5649 8.93084 8.88499 8.97458V9.92433V13.0691C8.57541 12.9709 8.24863 12.9136 7.90751 12.9136C6.08059 12.9136 4.59382 14.4262 4.59382 16.2858C4.59382 17.5807 5.31618 18.7054 6.37106 19.2702C6.83066 19.5161 7.35332 19.6571 7.90847 19.6571C9.69335 19.6571 11.1495 18.2125 11.2164 16.4122L11.2193 0.338379L15.1617 0.338379C15.1617 0.686393 15.1951 1.02566 15.2544 1.35618C15.5324 2.88433 16.4239 4.1957 17.6594 5.01519C18.5194 5.58582 19.5456 5.91925 20.6463 5.91925L20.6473 9.92919Z" fill="white"/>
</svg>
