<svg width="26" height="19" viewBox="0 0 26 19" fill="none" xmlns="http://www.w3.org/2000/svg">
<path d="M25.4626 2.83032C25.1671 1.71815 24.2969 0.841469 23.1911 0.54389C21.1884 0.00439473 13.1548 0.00439453 13.1548 0.00439453C13.1548 0.00439453 5.12126 0.00439473 3.11742 0.54389C2.01274 0.841469 1.14248 1.71708 0.847047 2.83032C0.309692 4.84701 0.309692 9.05379 0.309692 9.05379C0.309692 9.05379 0.309692 13.2606 0.847047 15.2773C1.14248 16.3894 2.01274 17.2661 3.11849 17.5637C5.12126 18.1032 13.1548 18.1032 13.1548 18.1032C13.1548 18.1032 21.1884 18.1032 23.1922 17.5637C24.2969 17.2661 25.1672 16.3905 25.4637 15.2773C25.9999 13.2606 25.9999 9.05379 25.9999 9.05379C25.9999 9.05379 25.9999 4.84701 25.4626 2.83032ZM10.528 12.8741V5.23343L17.2417 9.05379L10.528 12.8741Z" fill="white"/>
</svg>
